<?xml version="1.0" standalone="no"?>
 <!DOCTYPE svg PUBLIC "-//W3C//DTD SVG 1.1//EN" 
 "http://www.w3.org/Graphics/SVG/1.1/DTD/svg11.dtd"> 
<svg
  xmlns:svg="http://www.w3.org/2000/svg"
  xmlns="http://www.w3.org/2000/svg"
  xmlns:xlink="http://www.w3.org/1999/xlink"
  version="1.1"
  width="1.562100cm" height="1.297940cm" viewBox="0 0 15621000 12979400">
<title>SVG Picture created as source auto change-brd.svg date 2022/06/19 09:47:12 </title>
  <desc>Picture generated by PCBNEW </desc>
<g style="fill:#000000; fill-opacity:1.000000;stroke:#000000; stroke-opacity:1.000000;
stroke-linecap:round; stroke-linejoin:round;"
 transform="translate(0 0) scale(1 1)">
</g>
<g style="fill:#000000; fill-opacity:0.0; 
stroke:#000000; stroke-width:0.000000; stroke-opacity:1; 
stroke-linecap:round; stroke-linejoin:round;">
<g >
</g>
<g >
</g>
<g >
</g>
<g >
</g>
<g style="fill:#008400; fill-opacity:0.0; 
stroke:#008400; stroke-width:0.000000; stroke-opacity:1; 
stroke-linecap:round; stroke-linejoin:round;">
</g>
<g style="fill:#008400; fill-opacity:0.0; 
stroke:#008400; stroke-width:1.000000; stroke-opacity:1; 
stroke-linecap:round; stroke-linejoin:round;">
</g>
<g style="fill:#008400; fill-opacity:1.0; 
stroke:#008400; stroke-width:1.000000; stroke-opacity:1; 
stroke-linecap:round; stroke-linejoin:round;">
<path style="fill:#008400; fill-opacity:1.0; 
stroke:#008400; stroke-width:1.000000; stroke-opacity:1; 
stroke-linecap:round; stroke-linejoin:round;fill-rule:evenodd;"
d="M 15211713.000000,2881001.000000
15211713.000000,4230999.000000
13011715.000000,4230999.000000
13011715.000000,2881001.000000
Z" /> 
</g>
<g >
</g>
<g style="fill:#008400; fill-opacity:1.0; 
stroke:#008400; stroke-width:1.000000; stroke-opacity:1; 
stroke-linecap:round; stroke-linejoin:round;">
<path style="fill:#008400; fill-opacity:1.0; 
stroke:#008400; stroke-width:1.000000; stroke-opacity:1; 
stroke-linecap:round; stroke-linejoin:round;fill-rule:evenodd;"
d="M 7083713.000000,8469001.000000
7083713.000000,9818999.000000
4883715.000000,9818999.000000
4883715.000000,8469001.000000
Z" /> 
</g>
<g >
</g>
<g style="fill:#008400; fill-opacity:1.0; 
stroke:#008400; stroke-width:1.000000; stroke-opacity:1; 
stroke-linecap:round; stroke-linejoin:round;">
<path style="fill:#008400; fill-opacity:1.0; 
stroke:#008400; stroke-width:1.000000; stroke-opacity:1; 
stroke-linecap:round; stroke-linejoin:round;fill-rule:evenodd;"
d="M 4883715.000000,4738999.000000
4883715.000000,3389001.000000
7083713.000000,3389001.000000
7083713.000000,4738999.000000
Z" /> 
</g>
<g >
</g>
<g style="fill:#008400; fill-opacity:1.0; 
stroke:#008400; stroke-width:1.000000; stroke-opacity:1; 
stroke-linecap:round; stroke-linejoin:round;">
<path style="fill:#008400; fill-opacity:1.0; 
stroke:#008400; stroke-width:1.000000; stroke-opacity:1; 
stroke-linecap:round; stroke-linejoin:round;fill-rule:evenodd;"
d="M 15211713.000000,6437001.000000
15211713.000000,7786999.000000
13011715.000000,7786999.000000
13011715.000000,6437001.000000
Z" /> 
</g>
<g >
</g>
<g style="fill:#008400; fill-opacity:1.0; 
stroke:#008400; stroke-width:1.000000; stroke-opacity:1; 
stroke-linecap:round; stroke-linejoin:round;">
<path style="fill:#008400; fill-opacity:1.0; 
stroke:#008400; stroke-width:1.000000; stroke-opacity:1; 
stroke-linecap:round; stroke-linejoin:round;fill-rule:evenodd;"
d="M 7083713.000000,849001.000000
7083713.000000,2198999.000000
4883715.000000,2198999.000000
4883715.000000,849001.000000
Z" /> 
</g>
<g >
</g>
<g style="fill:#008400; fill-opacity:1.0; 
stroke:#008400; stroke-width:1.000000; stroke-opacity:1; 
stroke-linecap:round; stroke-linejoin:round;">
<path style="fill:#008400; fill-opacity:1.0; 
stroke:#008400; stroke-width:1.000000; stroke-opacity:1; 
stroke-linecap:round; stroke-linejoin:round;fill-rule:evenodd;"
d="M 7083713.000000,5929001.000000
7083713.000000,7278999.000000
4883715.000000,7278999.000000
4883715.000000,5929001.000000
Z" /> 
</g>
<g >
</g>
<g style="fill:#C2C2C2; fill-opacity:1.0; 
stroke:#C2C2C2; stroke-width:1.000000; stroke-opacity:1; 
stroke-linecap:round; stroke-linejoin:round;">
<circle cx="7761714.000000" cy="1016000.000000" r="200000.000000" /> 
</g>
<g style="fill:#C2C2C2; fill-opacity:1.0; 
stroke:#C2C2C2; stroke-width:21200.000000; stroke-opacity:1; 
stroke-linecap:round; stroke-linejoin:round;">
</g>
<g style="fill:#C2C2C2; fill-opacity:1.0; 
stroke:#C2C2C2; stroke-width:1.000000; stroke-opacity:1; 
stroke-linecap:round; stroke-linejoin:round;">
<circle cx="9031714.000000" cy="4064000.000000" r="100000.000000" /> 
</g>
<g style="fill:#C2C2C2; fill-opacity:1.0; 
stroke:#C2C2C2; stroke-width:21200.000000; stroke-opacity:1; 
stroke-linecap:round; stroke-linejoin:round;">
</g>
<g style="fill:#C2C2C2; fill-opacity:1.0; 
stroke:#C2C2C2; stroke-width:1.000000; stroke-opacity:1; 
stroke-linecap:round; stroke-linejoin:round;">
<circle cx="12079714.000000" cy="8890000.000000" r="500000.000000" /> 
</g>
<g style="fill:#C2C2C2; fill-opacity:1.0; 
stroke:#C2C2C2; stroke-width:21200.000000; stroke-opacity:1; 
stroke-linecap:round; stroke-linejoin:round;">
</g>
<g style="fill:#C2C2C2; fill-opacity:1.0; 
stroke:#C2C2C2; stroke-width:1.000000; stroke-opacity:1; 
stroke-linecap:round; stroke-linejoin:round;">
<circle cx="10555714.000000" cy="5588000.000000" r="400000.000000" /> 
</g>
<g style="fill:#C2C2C2; fill-opacity:1.0; 
stroke:#C2C2C2; stroke-width:21200.000000; stroke-opacity:1; 
stroke-linecap:round; stroke-linejoin:round;">
</g>
<g style="fill:#C2C2C2; fill-opacity:1.0; 
stroke:#C2C2C2; stroke-width:1.000000; stroke-opacity:1; 
stroke-linecap:round; stroke-linejoin:round;">
<circle cx="8015714.000000" cy="7366000.000000" r="250000.000000" /> 
</g>
<g style="fill:#C2C2C2; fill-opacity:1.0; 
stroke:#C2C2C2; stroke-width:21200.000000; stroke-opacity:1; 
stroke-linecap:round; stroke-linejoin:round;">
</g>
<g style="fill:#C2C2C2; fill-opacity:1.0; 
stroke:#C2C2C2; stroke-width:1.000000; stroke-opacity:1; 
stroke-linecap:round; stroke-linejoin:round;">
<circle cx="7008042.000000" cy="2876559.000000" r="250000.000000" /> 
</g>
<g style="fill:#C2C2C2; fill-opacity:1.0; 
stroke:#C2C2C2; stroke-width:21200.000000; stroke-opacity:1; 
stroke-linecap:round; stroke-linejoin:round;">
</g>
<g style="fill:#C2C2C2; fill-opacity:1.0; 
stroke:#C2C2C2; stroke-width:1.000000; stroke-opacity:1; 
stroke-linecap:round; stroke-linejoin:round;">
<circle cx="8015714.000000" cy="7366000.000000" r="100000.000000" /> 
</g>
<g style="fill:#C2C2C2; fill-opacity:1.0; 
stroke:#C2C2C2; stroke-width:21200.000000; stroke-opacity:1; 
stroke-linecap:round; stroke-linejoin:round;">
</g>
<g style="fill:#C2C2C2; fill-opacity:1.0; 
stroke:#C2C2C2; stroke-width:1.000000; stroke-opacity:1; 
stroke-linecap:round; stroke-linejoin:round;">
<circle cx="12079714.000000" cy="1270000.000000" r="500000.000000" /> 
</g>
<g style="fill:#C2C2C2; fill-opacity:1.0; 
stroke:#C2C2C2; stroke-width:21200.000000; stroke-opacity:1; 
stroke-linecap:round; stroke-linejoin:round;">
</g>
<g style="fill:#C2C2C2; fill-opacity:1.0; 
stroke:#C2C2C2; stroke-width:1.000000; stroke-opacity:1; 
stroke-linecap:round; stroke-linejoin:round;">
<circle cx="12333714.000000" cy="3810000.000000" r="250000.000000" /> 
</g>
<g style="fill:#C2C2C2; fill-opacity:1.0; 
stroke:#C2C2C2; stroke-width:21200.000000; stroke-opacity:1; 
stroke-linecap:round; stroke-linejoin:round;">
</g>
<g style="fill:#C2C2C2; fill-opacity:1.0; 
stroke:#C2C2C2; stroke-width:1.000000; stroke-opacity:1; 
stroke-linecap:round; stroke-linejoin:round;">
<circle cx="14619714.000000" cy="5080000.000000" r="250000.000000" /> 
</g>
<g style="fill:#C2C2C2; fill-opacity:1.0; 
stroke:#C2C2C2; stroke-width:21200.000000; stroke-opacity:1; 
stroke-linecap:round; stroke-linejoin:round;">
</g>
<g style="fill:#C2C2C2; fill-opacity:1.0; 
stroke:#C2C2C2; stroke-width:1.000000; stroke-opacity:1; 
stroke-linecap:round; stroke-linejoin:round;">
<circle cx="12079714.000000" cy="6858000.000000" r="500000.000000" /> 
</g>
<g style="fill:#C2C2C2; fill-opacity:1.0; 
stroke:#C2C2C2; stroke-width:21200.000000; stroke-opacity:1; 
stroke-linecap:round; stroke-linejoin:round;">
</g>
<g style="fill:#C2C2C2; fill-opacity:1.0; 
stroke:#C2C2C2; stroke-width:1.000000; stroke-opacity:1; 
stroke-linecap:round; stroke-linejoin:round;">
<circle cx="13095714.000000" cy="5334000.000000" r="250000.000000" /> 
</g>
<g style="fill:#C2C2C2; fill-opacity:1.0; 
stroke:#C2C2C2; stroke-width:21200.000000; stroke-opacity:1; 
stroke-linecap:round; stroke-linejoin:round;">
</g>
<g >
</g>
<g style="fill:#008400; fill-opacity:1.0; 
stroke:#008400; stroke-width:21200.000000; stroke-opacity:1; 
stroke-linecap:round; stroke-linejoin:round;">
</g>
<g style="fill:#008400; fill-opacity:1.0; 
stroke:#008400; stroke-width:600000.000000; stroke-opacity:1; 
stroke-linecap:round; stroke-linejoin:round;">
</g>
<g style="fill:#008400; fill-opacity:0.0; 
stroke:#008400; stroke-width:600000.000000; stroke-opacity:1; 
stroke-linecap:round; stroke-linejoin:round;">
<path d="M7253714 1524000
L7761714 1016000
" />
<path d="M5983714 1524000
L7253714 1524000
" />
<path d="M7507714 5588000
L5983714 4064000
" />
<path d="M10555714 5588000
L7507714 5588000
" />
<path d="M8015714 7366000
L8015714 8382000
" />
<path d="M8015714 8382000
L7253714 9144000
" />
<path d="M12079714 1270000
L8614601 1270000
" />
</g>
<g style="fill:#008400; fill-opacity:0.0; 
stroke:#008400; stroke-width:200000.000000; stroke-opacity:1; 
stroke-linecap:round; stroke-linejoin:round;">
<path d="M6237714 9144000
L5983714 9144000
" />
</g>
<g style="fill:#008400; fill-opacity:0.0; 
stroke:#008400; stroke-width:600000.000000; stroke-opacity:1; 
stroke-linecap:round; stroke-linejoin:round;">
<path d="M8614601 1270000
L7008042 2876559
" />
<path d="M7253714 9144000
L5983714 9144000
" />
<path d="M14619714 4064000
L14111714 3556000
" />
<path d="M12333714 3810000
L13857714 3810000
" />
<path d="M13857714 3810000
L14111714 3556000
" />
<path d="M14619714 5080000
L14619714 4064000
" />
<path d="M13095714 6096000
L14111714 7112000
" />
</g>
<g style="fill:#008400; fill-opacity:0.0; 
stroke:#008400; stroke-width:1000000.000000; stroke-opacity:1; 
stroke-linecap:round; stroke-linejoin:round;">
<path d="M12079714 6858000
L13857714 6858000
" />
</g>
<g style="fill:#008400; fill-opacity:0.0; 
stroke:#008400; stroke-width:600000.000000; stroke-opacity:1; 
stroke-linecap:round; stroke-linejoin:round;">
<path d="M13095714 5334000
L13095714 6096000
" />
</g>
<g style="fill:#008400; fill-opacity:0.0; 
stroke:#008400; stroke-width:1000000.000000; stroke-opacity:1; 
stroke-linecap:round; stroke-linejoin:round;">
<path d="M13857714 6858000
L14111714 7112000
" />
</g>
<g >
</g>
<g style="fill:#008400; fill-opacity:0.0; 
stroke:#008400; stroke-width:1000000.000000; stroke-opacity:1; 
stroke-linecap:round; stroke-linejoin:round;">
<g >
</g>
<g style="fill:#008400; fill-opacity:1.0; 
stroke:#008400; stroke-width:1.000000; stroke-opacity:1; 
stroke-linecap:round; stroke-linejoin:round;">
<path style="fill:#008400; fill-opacity:1.0; 
stroke:#008400; stroke-width:1.000000; stroke-opacity:1; 
stroke-linecap:round; stroke-linejoin:round;fill-rule:evenodd;"
d="M 15023335.000000,574502.000000
15069828.000000,628158.000000
15081214.000000,680500.000000
15081214.000000,2454500.000000
15061212.000000,2522621.000000
15007556.000000,2569114.000000
14955214.000000,2580500.000000
12967068.000000,2580500.000000
12963364.000000,2580941.000000
12963361.000000,2580941.000000
12955968.000000,2581821.000000
12940868.000000,2583618.000000
12838561.000000,2629061.000000
12759473.000000,2708287.000000
12714208.000000,2810673.000000
12711214.000000,2836354.000000
12711214.000000,3083500.000000
12691212.000000,3151621.000000
12637556.000000,3198114.000000
12585214.000000,3209500.000000
12294353.000000,3209500.000000
12176952.000000,3224956.000000
12030873.000000,3285464.000000
11905432.000000,3381718.000000
11809178.000000,3507159.000000
11748670.000000,3653238.000000
11728032.000000,3810000.000000
11748670.000000,3966762.000000
11809178.000000,4112841.000000
11905432.000000,4238282.000000
12030873.000000,4334536.000000
12176952.000000,4395044.000000
12294353.000000,4410500.000000
12714006.000000,4410500.000000
12782127.000000,4430502.000000
12803023.000000,4447327.000000
12830765.000000,4475021.000000
12830770.000000,4475025.000000
12839001.000000,4483241.000000
12849640.000000,4487944.000000
12849642.000000,4487946.000000
12928451.000000,4522787.000000
12982667.000000,4568625.000000
13003495.000000,4636498.000000
12984321.000000,4704856.000000
12925722.000000,4754436.000000
12792873.000000,4809464.000000
12786322.000000,4814491.000000
12689474.000000,4888805.000000
12667432.000000,4905718.000000
12662409.000000,4912264.000000
12650814.000000,4927375.000000
12571178.000000,5031159.000000
12510670.000000,5177238.000000
12509592.000000,5185426.000000
12503912.000000,5228574.000000
12495214.000000,5294639.000000
12495214.000000,5931500.000000
12475212.000000,5999621.000000
12421556.000000,6046114.000000
12369214.000000,6057500.000000
12135136.000000,6057500.000000
12120217.000000,6056614.000000
12114883.000000,6055978.000000
12085338.000000,6052455.000000
12039544.000000,6057268.000000
12036659.000000,6057500.000000
12034559.000000,6057500.000000
12031071.000000,6057891.000000
12031058.000000,6057892.000000
11993652.000000,6062088.000000
11992779.000000,6062183.000000
11924071.000000,6069405.000000
11906731.000000,6071227.000000
11904053.000000,6072139.000000
11901242.000000,6072454.000000
11895121.000000,6074586.000000
11895119.000000,6074586.000000
11819507.000000,6100917.000000
11818675.000000,6101204.000000
11742854.000000,6127015.000000
11742853.000000,6127016.000000
11736721.000000,6129103.000000
11734313.000000,6130585.000000
11731641.000000,6131515.000000
11686892.000000,6159477.000000
11658201.000000,6177405.000000
11657455.000000,6177867.000000
11640172.000000,6188500.000000
11583759.000000,6223206.000000
11581738.000000,6225185.000000
11579339.000000,6226684.000000
11574754.000000,6231238.000000
11574753.000000,6231238.000000
11517909.000000,6287687.000000
11517282.000000,6288305.000000
11455446.000000,6348859.000000
11453913.000000,6351238.000000
11451907.000000,6353230.000000
11405324.000000,6426633.000000
11358160.000000,6499817.000000
11357192.000000,6502477.000000
11355677.000000,6504864.000000
11353507.000000,6510957.000000
11353503.000000,6510966.000000
11326631.000000,6586433.000000
11326333.000000,6587262.000000
11296736.000000,6668578.000000
11296381.000000,6671386.000000
11295433.000000,6674049.000000
11294670.000000,6680452.000000
11294669.000000,6680454.000000
11285186.000000,6759983.000000
11285079.000000,6760855.000000
11274228.000000,6846753.000000
11274504.000000,6849567.000000
11274169.000000,6852376.000000
11275728.000000,6867204.000000
11283221.000000,6938496.000000
11283300.000000,6939274.000000
11291753.000000,7025486.000000
11292645.000000,7028168.000000
11292941.000000,7030983.000000
11295023.000000,7037098.000000
11295024.000000,7037104.000000
11320842.000000,7112943.000000
11321123.000000,7113777.000000
11348440.000000,7195896.000000
11349906.000000,7198316.000000
11350817.000000,7200993.000000
11360927.000000,7217426.000000
11396151.000000,7274681.000000
11396610.000000,7275433.000000
11438127.000000,7343988.000000
11438130.000000,7343991.000000
11441473.000000,7349512.000000
11443439.000000,7351548.000000
11444920.000000,7353955.000000
11449434.000000,7358565.000000
11449439.000000,7358571.000000
11505504.000000,7415822.000000
11506063.000000,7416396.000000
11566228.000000,7478699.000000
11568594.000000,7480248.000000
11570573.000000,7482268.000000
11643394.000000,7529198.000000
11644051.000000,7529625.000000
11711106.000000,7573505.000000
11711110.000000,7573507.000000
11716503.000000,7577036.000000
11719153.000000,7578022.000000
11721531.000000,7579554.000000
11802912.000000,7609174.000000
11803589.000000,7609423.000000
11884830.000000,7639636.000000
11887632.000000,7640010.000000
11890292.000000,7640978.000000
11896706.000000,7641788.000000
11896709.000000,7641789.000000
11937234.000000,7646908.000000
11976369.000000,7651851.000000
11976946.000000,7651926.000000
12030101.000000,7659019.000000
12055865.000000,7662457.000000
12055867.000000,7662457.000000
12062844.000000,7663388.000000
12069855.000000,7662750.000000
12069859.000000,7662750.000000
12110853.000000,7659019.000000
12122272.000000,7658500.000000
12585214.000000,7658500.000000
12653335.000000,7678502.000000
12699828.000000,7732158.000000
12711214.000000,7784500.000000
12711214.000000,7831646.000000
12714332.000000,7857846.000000
12718170.000000,7866486.000000
12718170.000000,7866487.000000
12738830.000000,7913000.000000
12759775.000000,7960153.000000
12839001.000000,8039241.000000
12849638.000000,8043944.000000
12849640.000000,8043945.000000
12909176.000000,8070265.000000
12941387.000000,8084506.000000
12967068.000000,8087500.000000
14955214.000000,8087500.000000
15023335.000000,8107502.000000
15069828.000000,8161158.000000
15081214.000000,8213500.000000
15081214.000000,9987500.000000
15061212.000000,10055621.000000
15007556.000000,10102114.000000
14955214.000000,10113500.000000
7475582.000000,10113500.000000
7407461.000000,10093498.000000
7360968.000000,10039842.000000
7350864.000000,9969568.000000
7360342.000000,9936553.000000
7377388.000000,9897995.000000
7377388.000000,9897994.000000
7381220.000000,9889327.000000
7384214.000000,9863646.000000
7384214.000000,9824113.000000
7404216.000000,9755992.000000
7461995.000000,9707704.000000
7556555.000000,9668536.000000
7681996.000000,9572282.000000
7701144.000000,9547328.000000
7712011.000000,9534938.000000
8406652.000000,8840297.000000
8419043.000000,8829429.000000
8437450.000000,8815305.000000
8443996.000000,8810282.000000
8540250.000000,8684841.000000
8600758.000000,8538762.000000
8616214.000000,8421361.000000
8621396.000000,8382000.000000
8617292.000000,8350827.000000
8616214.000000,8334381.000000
8616214.000000,7326639.000000
8600758.000000,7209238.000000
8540250.000000,7063159.000000
8443996.000000,6937718.000000
8318555.000000,6841464.000000
8172476.000000,6780956.000000
8015714.000000,6760318.000000
7858952.000000,6780956.000000
7712873.000000,6841464.000000
7706319.000000,6846493.000000
7699171.000000,6850620.000000
7697388.000000,6847532.000000
7646383.000000,6867204.000000
7609216.000000,6864754.000000
7578167.000000,6858000.000000
6255829.000000,6858000.000000
6240590.000000,6862475.000000
6239385.000000,6863865.000000
6237714.000000,6871548.000000
6237714.000000,7768884.000000
6242189.000000,7784123.000000
6243579.000000,7785328.000000
6251262.000000,7786999.000000
7128383.000000,7786999.000000
7135204.000000,7786629.000000
7186066.000000,7781105.000000
7201317.000000,7777479.000000
7244984.000000,7761109.000000
7315791.000000,7755926.000000
7378160.000000,7789846.000000
7412289.000000,7852102.000000
7415214.000000,7879091.000000
7415214.000000,8081075.000000
7395212.000000,8149196.000000
7378309.000000,8170170.000000
7369700.000000,8178779.000000
7307388.000000,8212805.000000
7236573.000000,8207740.000000
7229657.000000,8204924.000000
7162706.000000,8175325.000000
7162707.000000,8175325.000000
7154041.000000,8171494.000000
7128360.000000,8168500.000000
5140214.000000,8168500.000000
5072093.000000,8148498.000000
5025600.000000,8094842.000000
5014214.000000,8042500.000000
5014214.000000,7913000.000000
5034216.000000,7844879.000000
5087872.000000,7798386.000000
5140214.000000,7787000.000000
5711599.000000,7787000.000000
5726838.000000,7782525.000000
5728043.000000,7781135.000000
5729714.000000,7773452.000000
5729714.000000,5439116.000000
5725239.000000,5423877.000000
5723849.000000,5422672.000000
5716166.000000,5421001.000000
5140214.000000,5421001.000000
5072093.000000,5400999.000000
5025600.000000,5347343.000000
5014214.000000,5295001.000000
5014214.000000,5165500.000000
5034216.000000,5097379.000000
5087872.000000,5050886.000000
5140214.000000,5039500.000000
6057789.000000,5039500.000000
6125910.000000,5059502.000000
6146884.000000,5076405.000000
6287829.000000,5217350.000000
6321855.000000,5279662.000000
6316790.000000,5350477.000000
6274243.000000,5407313.000000
6242603.000000,5423152.000000
6239385.000000,5426865.000000
6237714.000000,5434548.000000
6237714.000000,6331885.000000
6242189.000000,6347124.000000
6243579.000000,6348329.000000
6251262.000000,6350000.000000
7573598.000000,6350000.000000
7588837.000000,6345525.000000
7590042.000000,6344135.000000
7591713.000000,6336452.000000
7591713.000000,6314500.000000
7611715.000000,6246379.000000
7665371.000000,6199886.000000
7717713.000000,6188500.000000
10161561.000000,6188500.000000
10221683.000000,6203769.000000
10289272.000000,6240467.000000
10289274.000000,6240468.000000
10295949.000000,6244092.000000
10303298.000000,6246020.000000
10452597.000000,6285188.000000
10452599.000000,6285188.000000
10459947.000000,6287116.000000
10546323.000000,6288473.000000
10621875.000000,6289660.000000
10621878.000000,6289660.000000
10629474.000000,6289779.000000
10636879.000000,6288083.000000
10636880.000000,6288083.000000
10697300.000000,6274245.000000
10794743.000000,6251928.000000
10946212.000000,6175747.000000
11025427.000000,6108090.000000
11069365.000000,6070564.000000
11069366.000000,6070563.000000
11075137.000000,6065634.000000
11174075.000000,5927947.000000
11176908.000000,5920900.000000
11234480.000000,5777687.000000
11234481.000000,5777685.000000
11237315.000000,5770634.000000
11252189.000000,5666122.000000
11260623.000000,5606862.000000
11260623.000000,5606859.000000
11261204.000000,5602778.000000
11261359.000000,5588000.000000
11240990.000000,5419680.000000
11181059.000000,5261077.000000
11123438.000000,5177238.000000
11089328.000000,5127608.000000
11089327.000000,5127607.000000
11085026.000000,5121349.000000
11079355.000000,5116296.000000
10964106.000000,5013612.000000
10964102.000000,5013610.000000
10958435.000000,5008560.000000
10918660.000000,4987500.000000
10848958.000000,4950595.000000
10808595.000000,4929224.000000
10644155.000000,4887919.000000
10636557.000000,4887879.000000
10636555.000000,4887879.000000
10559382.000000,4887475.000000
10474609.000000,4887031.000000
10467222.000000,4888805.000000
10467218.000000,4888805.000000
10369508.000000,4912264.000000
10309746.000000,4926612.000000
10303002.000000,4930093.000000
10302999.000000,4930094.000000
10218968.000000,4973466.000000
10161178.000000,4987500.000000
7808640.000000,4987500.000000
7740519.000000,4967498.000000
7719545.000000,4950595.000000
7421119.000000,4652169.000000
7387093.000000,4589857.000000
7384214.000000,4563074.000000
7384214.000000,3401812.000000
7404216.000000,3333691.000000
7421119.000000,3312717.000000
8826431.000000,1907405.000000
8888743.000000,1873379.000000
8915526.000000,1870500.000000
11497799.000000,1870500.000000
11566792.000000,1891068.000000
11716503.000000,1989036.000000
11884830.000000,2051636.000000
11891811.000000,2052567.000000
11891813.000000,2052568.000000
12055863.000000,2074457.000000
12055867.000000,2074457.000000
12062844.000000,2075388.000000
12069856.000000,2074750.000000
12069860.000000,2074750.000000
12234674.000000,2059751.000000
12234675.000000,2059751.000000
12241695.000000,2059112.000000
12412496.000000,2003615.000000
12443428.000000,1985176.000000
12560706.000000,1915265.000000
12560708.000000,1915264.000000
12566758.000000,1911657.000000
12696813.000000,1787807.000000
12796197.000000,1638222.000000
12810882.000000,1599564.000000
12857471.000000,1476919.000000
12857472.000000,1476914.000000
12859971.000000,1470336.000000
12884965.000000,1292493.000000
12885279.000000,1270000.000000
12865260.000000,1091528.000000
12806199.000000,921927.000000
12711030.000000,769625.000000
12706066.000000,764627.000000
12701690.000000,759105.000000
12704141.000000,757163.000000
12676898.000000,706921.000000
12682171.000000,636120.000000
12724885.000000,579410.000000
12791478.000000,554795.000000
12800097.000000,554500.000000
14955214.000000,554500.000000
Z" /> 
</g>
</g>
</g>
<g style="fill:#FFFFFF; fill-opacity:1.0; 
stroke:#FFFFFF; stroke-width:1.000000; stroke-opacity:1; 
stroke-linecap:round; stroke-linejoin:round;">
<circle cx="7761714.000000" cy="1016000.000000" r="199999.500000" /> 
</g>
<g style="fill:#FFFFFF; fill-opacity:1.0; 
stroke:#FFFFFF; stroke-width:21200.000000; stroke-opacity:1; 
stroke-linecap:round; stroke-linejoin:round;">
</g>
<g style="fill:#FFFFFF; fill-opacity:1.0; 
stroke:#FFFFFF; stroke-width:1.000000; stroke-opacity:1; 
stroke-linecap:round; stroke-linejoin:round;">
<circle cx="9031714.000000" cy="4064000.000000" r="50000.000000" /> 
</g>
<g style="fill:#FFFFFF; fill-opacity:1.0; 
stroke:#FFFFFF; stroke-width:21200.000000; stroke-opacity:1; 
stroke-linecap:round; stroke-linejoin:round;">
</g>
<g style="fill:#FFFFFF; fill-opacity:1.0; 
stroke:#FFFFFF; stroke-width:1.000000; stroke-opacity:1; 
stroke-linecap:round; stroke-linejoin:round;">
<circle cx="12079714.000000" cy="8890000.000000" r="250000.000000" /> 
</g>
<g style="fill:#FFFFFF; fill-opacity:1.0; 
stroke:#FFFFFF; stroke-width:21200.000000; stroke-opacity:1; 
stroke-linecap:round; stroke-linejoin:round;">
</g>
<g style="fill:#FFFFFF; fill-opacity:1.0; 
stroke:#FFFFFF; stroke-width:1.000000; stroke-opacity:1; 
stroke-linecap:round; stroke-linejoin:round;">
<circle cx="10555714.000000" cy="5588000.000000" r="200000.000000" /> 
</g>
<g style="fill:#FFFFFF; fill-opacity:1.0; 
stroke:#FFFFFF; stroke-width:21200.000000; stroke-opacity:1; 
stroke-linecap:round; stroke-linejoin:round;">
</g>
<g style="fill:#FFFFFF; fill-opacity:1.0; 
stroke:#FFFFFF; stroke-width:1.000000; stroke-opacity:1; 
stroke-linecap:round; stroke-linejoin:round;">
<circle cx="8015714.000000" cy="7366000.000000" r="150000.000000" /> 
</g>
<g style="fill:#FFFFFF; fill-opacity:1.0; 
stroke:#FFFFFF; stroke-width:21200.000000; stroke-opacity:1; 
stroke-linecap:round; stroke-linejoin:round;">
</g>
<g style="fill:#FFFFFF; fill-opacity:1.0; 
stroke:#FFFFFF; stroke-width:1.000000; stroke-opacity:1; 
stroke-linecap:round; stroke-linejoin:round;">
<circle cx="7008042.000000" cy="2876559.000000" r="150000.000000" /> 
</g>
<g style="fill:#FFFFFF; fill-opacity:1.0; 
stroke:#FFFFFF; stroke-width:21200.000000; stroke-opacity:1; 
stroke-linecap:round; stroke-linejoin:round;">
</g>
<g style="fill:#FFFFFF; fill-opacity:1.0; 
stroke:#FFFFFF; stroke-width:1.000000; stroke-opacity:1; 
stroke-linecap:round; stroke-linejoin:round;">
<circle cx="8015714.000000" cy="7366000.000000" r="50000.000000" /> 
</g>
<g style="fill:#FFFFFF; fill-opacity:1.0; 
stroke:#FFFFFF; stroke-width:21200.000000; stroke-opacity:1; 
stroke-linecap:round; stroke-linejoin:round;">
</g>
<g style="fill:#FFFFFF; fill-opacity:1.0; 
stroke:#FFFFFF; stroke-width:1.000000; stroke-opacity:1; 
stroke-linecap:round; stroke-linejoin:round;">
<circle cx="12079714.000000" cy="1270000.000000" r="250000.000000" /> 
</g>
<g style="fill:#FFFFFF; fill-opacity:1.0; 
stroke:#FFFFFF; stroke-width:21200.000000; stroke-opacity:1; 
stroke-linecap:round; stroke-linejoin:round;">
</g>
<g style="fill:#FFFFFF; fill-opacity:1.0; 
stroke:#FFFFFF; stroke-width:1.000000; stroke-opacity:1; 
stroke-linecap:round; stroke-linejoin:round;">
<circle cx="12333714.000000" cy="3810000.000000" r="150000.000000" /> 
</g>
<g style="fill:#FFFFFF; fill-opacity:1.0; 
stroke:#FFFFFF; stroke-width:21200.000000; stroke-opacity:1; 
stroke-linecap:round; stroke-linejoin:round;">
</g>
<g style="fill:#FFFFFF; fill-opacity:1.0; 
stroke:#FFFFFF; stroke-width:1.000000; stroke-opacity:1; 
stroke-linecap:round; stroke-linejoin:round;">
<circle cx="14619714.000000" cy="5080000.000000" r="150000.000000" /> 
</g>
<g style="fill:#FFFFFF; fill-opacity:1.0; 
stroke:#FFFFFF; stroke-width:21200.000000; stroke-opacity:1; 
stroke-linecap:round; stroke-linejoin:round;">
</g>
<g style="fill:#FFFFFF; fill-opacity:1.0; 
stroke:#FFFFFF; stroke-width:1.000000; stroke-opacity:1; 
stroke-linecap:round; stroke-linejoin:round;">
<circle cx="12079714.000000" cy="6858000.000000" r="250000.000000" /> 
</g>
<g style="fill:#FFFFFF; fill-opacity:1.0; 
stroke:#FFFFFF; stroke-width:21200.000000; stroke-opacity:1; 
stroke-linecap:round; stroke-linejoin:round;">
</g>
<g style="fill:#FFFFFF; fill-opacity:1.0; 
stroke:#FFFFFF; stroke-width:1.000000; stroke-opacity:1; 
stroke-linecap:round; stroke-linejoin:round;">
<circle cx="13095714.000000" cy="5334000.000000" r="150000.000000" /> 
</g>
<g style="fill:#FFFFFF; fill-opacity:1.0; 
stroke:#FFFFFF; stroke-width:21200.000000; stroke-opacity:1; 
stroke-linecap:round; stroke-linejoin:round;">
</g>
<g style="fill:#000000; fill-opacity:1.0; 
stroke:#000000; stroke-width:21200.000000; stroke-opacity:1; 
stroke-linecap:round; stroke-linejoin:round;">
<g >
</g>
<g style="fill:#840000; fill-opacity:1.0; 
stroke:#840000; stroke-width:21200.000000; stroke-opacity:1; 
stroke-linecap:round; stroke-linejoin:round;">
</g>
<g style="fill:#840000; fill-opacity:1.0; 
stroke:#840000; stroke-width:1.000000; stroke-opacity:1; 
stroke-linecap:round; stroke-linejoin:round;">
<path style="fill:#840000; fill-opacity:1.0; 
stroke:#840000; stroke-width:1.000000; stroke-opacity:1; 
stroke-linecap:round; stroke-linejoin:round;fill-rule:evenodd;"
d="M 10879713.000000,2043999.000000
10409715.000000,2043999.000000
10409715.000000,1594001.000000
10879713.000000,1594001.000000
Z" /> 
<path style="fill:#840000; fill-opacity:1.0; 
stroke:#840000; stroke-width:1.000000; stroke-opacity:1; 
stroke-linecap:round; stroke-linejoin:round;fill-rule:evenodd;"
d="M 10879713.000000,2693999.000000
10409715.000000,2693999.000000
10409715.000000,2244001.000000
10879713.000000,2244001.000000
Z" /> 
<path style="fill:#840000; fill-opacity:1.0; 
stroke:#840000; stroke-width:1.000000; stroke-opacity:1; 
stroke-linecap:round; stroke-linejoin:round;fill-rule:evenodd;"
d="M 10879713.000000,3343999.000000
10409715.000000,3343999.000000
10409715.000000,2894001.000000
10879713.000000,2894001.000000
Z" /> 
<path style="fill:#840000; fill-opacity:1.0; 
stroke:#840000; stroke-width:1.000000; stroke-opacity:1; 
stroke-linecap:round; stroke-linejoin:round;fill-rule:evenodd;"
d="M 10879713.000000,3993999.000000
10409715.000000,3993999.000000
10409715.000000,3544001.000000
10879713.000000,3544001.000000
Z" /> 
<path style="fill:#840000; fill-opacity:1.0; 
stroke:#840000; stroke-width:1.000000; stroke-opacity:1; 
stroke-linecap:round; stroke-linejoin:round;fill-rule:evenodd;"
d="M 13749713.000000,3993999.000000
13279715.000000,3993999.000000
13279715.000000,3544001.000000
13749713.000000,3544001.000000
Z" /> 
<path style="fill:#840000; fill-opacity:1.0; 
stroke:#840000; stroke-width:1.000000; stroke-opacity:1; 
stroke-linecap:round; stroke-linejoin:round;fill-rule:evenodd;"
d="M 13749713.000000,3343999.000000
13279715.000000,3343999.000000
13279715.000000,2894001.000000
13749713.000000,2894001.000000
Z" /> 
<path style="fill:#840000; fill-opacity:1.0; 
stroke:#840000; stroke-width:1.000000; stroke-opacity:1; 
stroke-linecap:round; stroke-linejoin:round;fill-rule:evenodd;"
d="M 13749713.000000,2693999.000000
13279715.000000,2693999.000000
13279715.000000,2244001.000000
13749713.000000,2244001.000000
Z" /> 
<path style="fill:#840000; fill-opacity:1.0; 
stroke:#840000; stroke-width:1.000000; stroke-opacity:1; 
stroke-linecap:round; stroke-linejoin:round;fill-rule:evenodd;"
d="M 13749713.000000,2043999.000000
13279715.000000,2043999.000000
13279715.000000,1594001.000000
13749713.000000,1594001.000000
Z" /> 
</g>
<g >
</g>
<g style="fill:#840000; fill-opacity:1.0; 
stroke:#840000; stroke-width:1.000000; stroke-opacity:1; 
stroke-linecap:round; stroke-linejoin:round;">
<path style="fill:#840000; fill-opacity:1.0; 
stroke:#840000; stroke-width:1.000000; stroke-opacity:1; 
stroke-linecap:round; stroke-linejoin:round;fill-rule:evenodd;"
d="M 10879713.000000,7123999.000000
10409715.000000,7123999.000000
10409715.000000,6674001.000000
10879713.000000,6674001.000000
Z" /> 
<path style="fill:#840000; fill-opacity:1.0; 
stroke:#840000; stroke-width:1.000000; stroke-opacity:1; 
stroke-linecap:round; stroke-linejoin:round;fill-rule:evenodd;"
d="M 10879713.000000,7773999.000000
10409715.000000,7773999.000000
10409715.000000,7324001.000000
10879713.000000,7324001.000000
Z" /> 
<path style="fill:#840000; fill-opacity:1.0; 
stroke:#840000; stroke-width:1.000000; stroke-opacity:1; 
stroke-linecap:round; stroke-linejoin:round;fill-rule:evenodd;"
d="M 10879713.000000,8423999.000000
10409715.000000,8423999.000000
10409715.000000,7974001.000000
10879713.000000,7974001.000000
Z" /> 
<path style="fill:#840000; fill-opacity:1.0; 
stroke:#840000; stroke-width:1.000000; stroke-opacity:1; 
stroke-linecap:round; stroke-linejoin:round;fill-rule:evenodd;"
d="M 10879713.000000,9073999.000000
10409715.000000,9073999.000000
10409715.000000,8624001.000000
10879713.000000,8624001.000000
Z" /> 
<path style="fill:#840000; fill-opacity:1.0; 
stroke:#840000; stroke-width:1.000000; stroke-opacity:1; 
stroke-linecap:round; stroke-linejoin:round;fill-rule:evenodd;"
d="M 13749713.000000,8423999.000000
13279715.000000,8423999.000000
13279715.000000,7974001.000000
13749713.000000,7974001.000000
Z" /> 
<path style="fill:#840000; fill-opacity:1.0; 
stroke:#840000; stroke-width:1.000000; stroke-opacity:1; 
stroke-linecap:round; stroke-linejoin:round;fill-rule:evenodd;"
d="M 13749713.000000,9073999.000000
13279715.000000,9073999.000000
13279715.000000,8624001.000000
13749713.000000,8624001.000000
Z" /> 
<path style="fill:#840000; fill-opacity:1.0; 
stroke:#840000; stroke-width:1.000000; stroke-opacity:1; 
stroke-linecap:round; stroke-linejoin:round;fill-rule:evenodd;"
d="M 13749713.000000,7773999.000000
13279715.000000,7773999.000000
13279715.000000,7324001.000000
13749713.000000,7324001.000000
Z" /> 
<path style="fill:#840000; fill-opacity:1.0; 
stroke:#840000; stroke-width:1.000000; stroke-opacity:1; 
stroke-linecap:round; stroke-linejoin:round;fill-rule:evenodd;"
d="M 13749713.000000,7123999.000000
13279715.000000,7123999.000000
13279715.000000,6674001.000000
13749713.000000,6674001.000000
Z" /> 
</g>
<g >
</g>
<g style="fill:#840000; fill-opacity:1.0; 
stroke:#840000; stroke-width:1.000000; stroke-opacity:1; 
stroke-linecap:round; stroke-linejoin:round;">
<path style="fill:#840000; fill-opacity:1.0; 
stroke:#840000; stroke-width:1.000000; stroke-opacity:1; 
stroke-linecap:round; stroke-linejoin:round;fill-rule:evenodd;"
d="M 8633714.000000,5483999.000000
8633714.000000,5184001.000000
9153712.000000,5184001.000000
9153712.000000,5483999.000000
Z" /> 
<path style="fill:#840000; fill-opacity:1.0; 
stroke:#840000; stroke-width:1.000000; stroke-opacity:1; 
stroke-linecap:round; stroke-linejoin:round;fill-rule:evenodd;"
d="M 7893702.000000,4984000.000000
7893702.000000,4684002.000000
8443700.000000,4684002.000000
8443700.000000,4984000.000000
Z" /> 
<path style="fill:#840000; fill-opacity:1.0; 
stroke:#840000; stroke-width:1.000000; stroke-opacity:1; 
stroke-linecap:round; stroke-linejoin:round;fill-rule:evenodd;"
d="M 7893716.000000,5483999.000000
7893716.000000,5184001.000000
8413714.000000,5184001.000000
8413714.000000,5483999.000000
Z" /> 
<path style="fill:#840000; fill-opacity:1.0; 
stroke:#840000; stroke-width:1.000000; stroke-opacity:1; 
stroke-linecap:round; stroke-linejoin:round;fill-rule:evenodd;"
d="M 7893716.000000,5983998.000000
7893716.000000,5684000.000000
8413714.000000,5684000.000000
8413714.000000,5983998.000000
Z" /> 
<path style="fill:#840000; fill-opacity:1.0; 
stroke:#840000; stroke-width:1.000000; stroke-opacity:1; 
stroke-linecap:round; stroke-linejoin:round;fill-rule:evenodd;"
d="M 8633714.000000,5983998.000000
8633714.000000,5684000.000000
9153712.000000,5684000.000000
9153712.000000,5983998.000000
Z" /> 
<path style="fill:#840000; fill-opacity:1.0; 
stroke:#840000; stroke-width:1.000000; stroke-opacity:1; 
stroke-linecap:round; stroke-linejoin:round;fill-rule:evenodd;"
d="M 8633714.000000,4984000.000000
8633714.000000,4684002.000000
9153712.000000,4684002.000000
9153712.000000,4984000.000000
Z" /> 
</g>
<g >
</g>
<g >
</g>
<g >
</g>
<g >
</g>
<g >
</g>
<g >
</g>
<g >
</g>
<g style="fill:#C2C2C2; fill-opacity:1.0; 
stroke:#C2C2C2; stroke-width:1.000000; stroke-opacity:1; 
stroke-linecap:round; stroke-linejoin:round;">
<circle cx="7761714.000000" cy="1016000.000000" r="200000.000000" /> 
</g>
<g style="fill:#C2C2C2; fill-opacity:1.0; 
stroke:#C2C2C2; stroke-width:21200.000000; stroke-opacity:1; 
stroke-linecap:round; stroke-linejoin:round;">
</g>
<g style="fill:#C2C2C2; fill-opacity:1.0; 
stroke:#C2C2C2; stroke-width:1.000000; stroke-opacity:1; 
stroke-linecap:round; stroke-linejoin:round;">
<circle cx="9031714.000000" cy="4064000.000000" r="100000.000000" /> 
</g>
<g style="fill:#C2C2C2; fill-opacity:1.0; 
stroke:#C2C2C2; stroke-width:21200.000000; stroke-opacity:1; 
stroke-linecap:round; stroke-linejoin:round;">
</g>
<g style="fill:#C2C2C2; fill-opacity:1.0; 
stroke:#C2C2C2; stroke-width:1.000000; stroke-opacity:1; 
stroke-linecap:round; stroke-linejoin:round;">
<circle cx="12079714.000000" cy="8890000.000000" r="500000.000000" /> 
</g>
<g style="fill:#C2C2C2; fill-opacity:1.0; 
stroke:#C2C2C2; stroke-width:21200.000000; stroke-opacity:1; 
stroke-linecap:round; stroke-linejoin:round;">
</g>
<g style="fill:#C2C2C2; fill-opacity:1.0; 
stroke:#C2C2C2; stroke-width:1.000000; stroke-opacity:1; 
stroke-linecap:round; stroke-linejoin:round;">
<circle cx="10555714.000000" cy="5588000.000000" r="400000.000000" /> 
</g>
<g style="fill:#C2C2C2; fill-opacity:1.0; 
stroke:#C2C2C2; stroke-width:21200.000000; stroke-opacity:1; 
stroke-linecap:round; stroke-linejoin:round;">
</g>
<g style="fill:#C2C2C2; fill-opacity:1.0; 
stroke:#C2C2C2; stroke-width:1.000000; stroke-opacity:1; 
stroke-linecap:round; stroke-linejoin:round;">
<circle cx="8015714.000000" cy="7366000.000000" r="250000.000000" /> 
</g>
<g style="fill:#C2C2C2; fill-opacity:1.0; 
stroke:#C2C2C2; stroke-width:21200.000000; stroke-opacity:1; 
stroke-linecap:round; stroke-linejoin:round;">
</g>
<g style="fill:#C2C2C2; fill-opacity:1.0; 
stroke:#C2C2C2; stroke-width:1.000000; stroke-opacity:1; 
stroke-linecap:round; stroke-linejoin:round;">
<circle cx="7008042.000000" cy="2876559.000000" r="250000.000000" /> 
</g>
<g style="fill:#C2C2C2; fill-opacity:1.0; 
stroke:#C2C2C2; stroke-width:21200.000000; stroke-opacity:1; 
stroke-linecap:round; stroke-linejoin:round;">
</g>
<g style="fill:#C2C2C2; fill-opacity:1.0; 
stroke:#C2C2C2; stroke-width:1.000000; stroke-opacity:1; 
stroke-linecap:round; stroke-linejoin:round;">
<circle cx="8015714.000000" cy="7366000.000000" r="100000.000000" /> 
</g>
<g style="fill:#C2C2C2; fill-opacity:1.0; 
stroke:#C2C2C2; stroke-width:21200.000000; stroke-opacity:1; 
stroke-linecap:round; stroke-linejoin:round;">
</g>
<g style="fill:#C2C2C2; fill-opacity:1.0; 
stroke:#C2C2C2; stroke-width:1.000000; stroke-opacity:1; 
stroke-linecap:round; stroke-linejoin:round;">
<circle cx="12079714.000000" cy="1270000.000000" r="500000.000000" /> 
</g>
<g style="fill:#C2C2C2; fill-opacity:1.0; 
stroke:#C2C2C2; stroke-width:21200.000000; stroke-opacity:1; 
stroke-linecap:round; stroke-linejoin:round;">
</g>
<g style="fill:#C2C2C2; fill-opacity:1.0; 
stroke:#C2C2C2; stroke-width:1.000000; stroke-opacity:1; 
stroke-linecap:round; stroke-linejoin:round;">
<circle cx="12333714.000000" cy="3810000.000000" r="250000.000000" /> 
</g>
<g style="fill:#C2C2C2; fill-opacity:1.0; 
stroke:#C2C2C2; stroke-width:21200.000000; stroke-opacity:1; 
stroke-linecap:round; stroke-linejoin:round;">
</g>
<g style="fill:#C2C2C2; fill-opacity:1.0; 
stroke:#C2C2C2; stroke-width:1.000000; stroke-opacity:1; 
stroke-linecap:round; stroke-linejoin:round;">
<circle cx="14619714.000000" cy="5080000.000000" r="250000.000000" /> 
</g>
<g style="fill:#C2C2C2; fill-opacity:1.0; 
stroke:#C2C2C2; stroke-width:21200.000000; stroke-opacity:1; 
stroke-linecap:round; stroke-linejoin:round;">
</g>
<g style="fill:#C2C2C2; fill-opacity:1.0; 
stroke:#C2C2C2; stroke-width:1.000000; stroke-opacity:1; 
stroke-linecap:round; stroke-linejoin:round;">
<circle cx="12079714.000000" cy="6858000.000000" r="500000.000000" /> 
</g>
<g style="fill:#C2C2C2; fill-opacity:1.0; 
stroke:#C2C2C2; stroke-width:21200.000000; stroke-opacity:1; 
stroke-linecap:round; stroke-linejoin:round;">
</g>
<g style="fill:#C2C2C2; fill-opacity:1.0; 
stroke:#C2C2C2; stroke-width:1.000000; stroke-opacity:1; 
stroke-linecap:round; stroke-linejoin:round;">
<circle cx="13095714.000000" cy="5334000.000000" r="250000.000000" /> 
</g>
<g style="fill:#C2C2C2; fill-opacity:1.0; 
stroke:#C2C2C2; stroke-width:21200.000000; stroke-opacity:1; 
stroke-linecap:round; stroke-linejoin:round;">
</g>
<g >
</g>
<g style="fill:#840000; fill-opacity:1.0; 
stroke:#840000; stroke-width:21200.000000; stroke-opacity:1; 
stroke-linecap:round; stroke-linejoin:round;">
</g>
<g style="fill:#840000; fill-opacity:1.0; 
stroke:#840000; stroke-width:200000.000000; stroke-opacity:1; 
stroke-linecap:round; stroke-linejoin:round;">
</g>
<g style="fill:#840000; fill-opacity:0.0; 
stroke:#840000; stroke-width:200000.000000; stroke-opacity:1; 
stroke-linecap:round; stroke-linejoin:round;">
<path d="M8168701 5319014
L8153715 5334000
" />
<path d="M8168701 4834001
L8168701 5319014
" />
</g>
<g style="fill:#840000; fill-opacity:0.0; 
stroke:#840000; stroke-width:600000.000000; stroke-opacity:1; 
stroke-linecap:round; stroke-linejoin:round;">
<path d="M10644714 3119000
L9356714 3119000
" />
<path d="M11388714 8199000
L12079714 8890000
" />
<path d="M10644714 8199000
L11388714 8199000
" />
</g>
<g style="fill:#840000; fill-opacity:0.0; 
stroke:#840000; stroke-width:200000.000000; stroke-opacity:1; 
stroke-linecap:round; stroke-linejoin:round;">
<path d="M9031714 4064000
L9031714 4696000
" />
<path d="M9031714 4696000
L8893713 4834001
" />
<path d="M11358714 3769000
L10644714 3769000
" />
<path d="M10644714 4542998
L9353713 5833999
" />
<path d="M11825714 3302000
L11358714 3769000
" />
<path d="M10644714 3769000
L10644714 4542998
" />
<path d="M10644714 2469000
L11500714 2469000
" />
<path d="M9353713 5833999
L8893713 5833999
" />
<path d="M11500714 2469000
L11825714 2794000
" />
<path d="M11825714 2794000
L11825714 3302000
" />
</g>
<g style="fill:#840000; fill-opacity:0.0; 
stroke:#840000; stroke-width:600000.000000; stroke-opacity:1; 
stroke-linecap:round; stroke-linejoin:round;">
<path d="M10644714 5677000
L10555714 5588000
" />
<path d="M10644714 6899000
L10644714 5677000
" />
<path d="M7008042 2876559
L7008042 6358328
" />
<path d="M11530714 1819000
L12079714 1270000
" />
</g>
<g style="fill:#840000; fill-opacity:0.0; 
stroke:#840000; stroke-width:200000.000000; stroke-opacity:1; 
stroke-linecap:round; stroke-linejoin:round;">
<path d="M8153715 5833999
L8153715 7227999
" />
</g>
<g style="fill:#840000; fill-opacity:0.0; 
stroke:#840000; stroke-width:600000.000000; stroke-opacity:1; 
stroke-linecap:round; stroke-linejoin:round;">
<path d="M7008042 6358328
L8015714 7366000
" />
</g>
<g style="fill:#840000; fill-opacity:0.0; 
stroke:#840000; stroke-width:200000.000000; stroke-opacity:1; 
stroke-linecap:round; stroke-linejoin:round;">
<path d="M8153715 7227999
L8015714 7366000
" />
</g>
<g style="fill:#840000; fill-opacity:0.0; 
stroke:#840000; stroke-width:600000.000000; stroke-opacity:1; 
stroke-linecap:round; stroke-linejoin:round;">
<path d="M10644714 1819000
L11530714 1819000
" />
<path d="M14349714 8199000
L14619714 7929000
" />
<path d="M13514714 8199000
L13514714 8849000
" />
<path d="M13514714 3769000
L12374714 3769000
" />
<path d="M13514714 3119000
L13514714 3769000
" />
<path d="M12374714 3769000
L12333714 3810000
" />
<path d="M13514714 8199000
L14349714 8199000
" />
<path d="M14619714 7929000
L14619714 5080000
" />
<path d="M14111714 2032000
L14619714 2540000
" />
</g>
<g style="fill:#840000; fill-opacity:0.0; 
stroke:#840000; stroke-width:1000000.000000; stroke-opacity:1; 
stroke-linecap:round; stroke-linejoin:round;">
<path d="M12120714 6899000
L12079714 6858000
" />
</g>
<g style="fill:#840000; fill-opacity:0.0; 
stroke:#840000; stroke-width:600000.000000; stroke-opacity:1; 
stroke-linecap:round; stroke-linejoin:round;">
<path d="M14619714 3810000
L13095714 5334000
" />
<path d="M13898714 1819000
L14111714 2032000
" />
<path d="M13514714 7549000
L13514714 6899000
" />
</g>
<g style="fill:#840000; fill-opacity:0.0; 
stroke:#840000; stroke-width:1000000.000000; stroke-opacity:1; 
stroke-linecap:round; stroke-linejoin:round;">
<path d="M13514714 6899000
L12120714 6899000
" />
</g>
<g style="fill:#840000; fill-opacity:0.0; 
stroke:#840000; stroke-width:600000.000000; stroke-opacity:1; 
stroke-linecap:round; stroke-linejoin:round;">
<path d="M13514714 1819000
L13898714 1819000
" />
</g>
<g style="fill:#840000; fill-opacity:0.0; 
stroke:#840000; stroke-width:400000.000000; stroke-opacity:1; 
stroke-linecap:round; stroke-linejoin:round;">
<path d="M13514714 2469000
L13674714 2469000
" />
</g>
<g style="fill:#840000; fill-opacity:0.0; 
stroke:#840000; stroke-width:600000.000000; stroke-opacity:1; 
stroke-linecap:round; stroke-linejoin:round;">
<path d="M13514714 1819000
L13514714 2469000
" />
<path d="M14619714 2540000
L14619714 3810000
" />
</g>
<g style="fill:#840000; fill-opacity:0.0; 
stroke:#840000; stroke-width:400000.000000; stroke-opacity:1; 
stroke-linecap:round; stroke-linejoin:round;">
<path d="M13674714 2469000
L14111714 2032000
" />
</g>
<g >
</g>
<g style="fill:#840000; fill-opacity:0.0; 
stroke:#840000; stroke-width:400000.000000; stroke-opacity:1; 
stroke-linecap:round; stroke-linejoin:round;">
<g >
</g>
<g style="fill:#840000; fill-opacity:1.0; 
stroke:#840000; stroke-width:1.000000; stroke-opacity:1; 
stroke-linecap:round; stroke-linejoin:round;">
<path style="fill:#840000; fill-opacity:1.0; 
stroke:#840000; stroke-width:1.000000; stroke-opacity:1; 
stroke-linecap:round; stroke-linejoin:round;fill-rule:evenodd;"
d="M 11427528.000000,574502.000000
11474021.000000,628158.000000
11484125.000000,698432.000000
11457701.000000,758650.000000
11455446.000000,760859.000000
11358160.000000,911817.000000
11296736.000000,1080578.000000
11295853.000000,1087570.000000
11295851.000000,1087577.000000
11293234.000000,1108292.000000
11264852.000000,1173369.000000
11205793.000000,1212770.000000
11168228.000000,1218500.000000
10605353.000000,1218500.000000
10487952.000000,1233956.000000
10341873.000000,1294464.000000
10341805.000000,1294300.000000
10338457.000000,1295692.000000
10338868.000000,1296618.000000
10251661.000000,1335354.000000
10236561.000000,1342061.000000
10157473.000000,1421287.000000
10112208.000000,1523673.000000
10111111.000000,1533084.000000
10109250.000000,1539909.000000
10104096.000000,1554984.000000
10069618.000000,1638222.000000
10059670.000000,1662238.000000
10039032.000000,1819000.000000
10059670.000000,1975762.000000
10098419.000000,2069309.000000
10103917.000000,2082583.000000
10109002.000000,2097408.000000
10111215.000000,2105459.000000
10112332.000000,2114846.000000
10112651.000000,2115564.000000
10112710.000000,2172537.000000
10112208.000000,2173673.000000
10109214.000000,2199354.000000
10109214.000000,2421300.000000
10089212.000000,2489421.000000
10058778.000000,2522127.000000
10053989.000000,2525716.000000
10041429.000000,2538276.000000
9964928.000000,2640351.000000
9956390.000000,2655946.000000
9911236.000000,2776394.000000
9907609.000000,2791649.000000
9902083.000000,2842514.000000
9901714.000000,2849328.000000
9901714.000000,2875885.000000
9906189.000000,2891124.000000
9907579.000000,2892329.000000
9915262.000000,2894000.000000
10132542.000000,2894000.000000
10200663.000000,2914002.000000
10221559.000000,2930827.000000
10228765.000000,2938021.000000
10228770.000000,2938025.000000
10237001.000000,2946241.000000
10247638.000000,2950944.000000
10247640.000000,2950945.000000
10291708.000000,2970427.000000
10339387.000000,2991506.000000
10359532.000000,2993855.000000
10424875.000000,3021608.000000
10464843.000000,3080285.000000
10466743.000000,3151256.000000
10429971.000000,3211988.000000
10359832.000000,3244123.000000
10354059.000000,3244810.000000
10338868.000000,3246618.000000
10236561.000000,3292061.000000
10228342.000000,3300294.000000
10228341.000000,3300295.000000
10221630.000000,3307018.000000
10159347.000000,3341097.000000
10132457.000000,3344000.000000
9919830.000000,3344000.000000
9904591.000000,3348475.000000
9903386.000000,3349865.000000
9901715.000000,3357548.000000
9901715.000000,3388669.000000
9902085.000000,3395490.000000
9907609.000000,3446352.000000
9911235.000000,3461604.000000
9956390.000000,3582054.000000
9964928.000000,3597649.000000
10041429.000000,3699724.000000
10053989.000000,3712284.000000
10058778.000000,3715873.000000
10101293.000000,3772731.000000
10109214.000000,3816700.000000
10109214.000000,4038646.000000
10112332.000000,4064846.000000
10116170.000000,4073486.000000
10116170.000000,4073487.000000
10153051.000000,4156518.000000
10157775.000000,4167153.000000
10166008.000000,4175372.000000
10166009.000000,4175373.000000
10207232.000000,4216524.000000
10241311.000000,4278807.000000
10244214.000000,4305697.000000
10244214.000000,4324915.000000
10224212.000000,4393036.000000
10207309.000000,4414011.000000
9669308.000000,4952011.000000
9606996.000000,4986036.000000
9536180.000000,4980971.000000
9479345.000000,4938424.000000
9454534.000000,4871904.000000
9454213.000000,4862915.000000
9454213.000000,4639355.000000
9452785.000000,4627351.000000
9452212.000000,4622540.000000
9452212.000000,4622539.000000
9451095.000000,4613155.000000
9443062.000000,4595070.000000
9432214.000000,4543923.000000
9432214.000000,4105436.000000
9433765.000000,4085726.000000
9435655.000000,4073793.000000
9437206.000000,4064000.000000
9434933.000000,4049646.000000
9418911.000000,3948487.000000
9418910.000000,3948485.000000
9417360.000000,3938696.000000
9359764.000000,3825658.000000
9270056.000000,3735950.000000
9157018.000000,3678354.000000
9147229.000000,3676804.000000
9147227.000000,3676803.000000
9041507.000000,3660059.000000
9031714.000000,3658508.000000
9021921.000000,3660059.000000
8916201.000000,3676803.000000
8916199.000000,3676804.000000
8906410.000000,3678354.000000
8793372.000000,3735950.000000
8703664.000000,3825658.000000
8646068.000000,3938696.000000
8644518.000000,3948485.000000
8644517.000000,3948487.000000
8628495.000000,4049646.000000
8626222.000000,4064000.000000
8623928.000000,4063637.000000
8607771.000000,4118663.000000
8554115.000000,4165156.000000
8494955.000000,4176357.000000
8488386.000000,4176001.000000
8336816.000000,4176001.000000
8321577.000000,4180476.000000
8320372.000000,4181866.000000
8318701.000000,4189549.000000
8318701.000000,5257499.000000
8298699.000000,5325620.000000
8245043.000000,5372113.000000
8192701.000000,5383499.000000
8129715.000000,5383499.000000
8061594.000000,5363497.000000
8015101.000000,5309841.000000
8003715.000000,5257499.000000
8003715.000000,4692497.000000
8012643.000000,4662092.000000
8010194.000000,4661559.000000
8018701.000000,4622452.000000
8018701.000000,4194117.000000
8014226.000000,4178878.000000
8012836.000000,4177673.000000
8005153.000000,4176002.000000
7849032.000000,4176002.000000
7842211.000000,4176372.000000
7791349.000000,4181896.000000
7768408.000000,4187350.000000
7767924.000000,4185314.000000
7707960.000000,4189701.000000
7645592.000000,4155778.000000
7611465.000000,4093521.000000
7608542.000000,4066537.000000
7608542.000000,2837198.000000
7607226.000000,2827198.000000
7594164.000000,2727985.000000
7593086.000000,2719797.000000
7532578.000000,2573718.000000
7436324.000000,2448277.000000
7310883.000000,2352023.000000
7164804.000000,2291515.000000
7008042.000000,2270877.000000
6851280.000000,2291515.000000
6705201.000000,2352023.000000
6579760.000000,2448277.000000
6483506.000000,2573718.000000
6422998.000000,2719797.000000
6421920.000000,2727985.000000
6408859.000000,2827198.000000
6407542.000000,2837198.000000
6407542.000000,6310709.000000
6406464.000000,6327155.000000
6402360.000000,6358328.000000
6407542.000000,6397689.000000
6422998.000000,6515090.000000
6483506.000000,6661169.000000
6579760.000000,6786610.000000
6586306.000000,6791633.000000
6604713.000000,6805757.000000
6617104.000000,6816625.000000
7618929.000000,7818450.000000
7712873.000000,7890536.000000
7858952.000000,7951044.000000
8015714.000000,7971682.000000
8023902.000000,7970604.000000
8164288.000000,7952122.000000
8172476.000000,7951044.000000
8318555.000000,7890536.000000
8420146.000000,7812583.000000
8437450.000000,7799305.000000
8443996.000000,7794282.000000
8540250.000000,7668841.000000
8600758.000000,7522762.000000
8621396.000000,7366000.000000
8600758.000000,7209238.000000
8563806.000000,7120028.000000
8554215.000000,7071810.000000
8554215.000000,6410499.000000
8574217.000000,6342378.000000
8627873.000000,6295885.000000
8680215.000000,6284499.000000
9198359.000000,6284499.000000
9202063.000000,6284058.000000
9202066.000000,6284058.000000
9209459.000000,6283178.000000
9224559.000000,6281381.000000
9272873.000000,6259921.000000
9305681.000000,6245348.000000
9356829.000000,6234499.000000
9417146.000000,6234499.000000
9426577.000000,6231435.000000
9426581.000000,6231434.000000
9438066.000000,6227702.000000
9457291.000000,6223086.000000
9469225.000000,6221196.000000
9469226.000000,6221196.000000
9479017.000000,6219645.000000
9487850.000000,6215144.000000
9487854.000000,6215143.000000
9498619.000000,6209658.000000
9516879.000000,6202094.000000
9537803.000000,6195295.000000
9555606.000000,6182360.000000
9572458.000000,6172034.000000
9583215.000000,6166553.000000
9592055.000000,6162049.000000
9614608.000000,6139496.000000
9614637.000000,6139469.000000
9786059.000000,5968047.000000
9848371.000000,5934021.000000
9919186.000000,5939086.000000
9979736.000000,5986866.000000
10021544.000000,6049083.000000
10019144.000000,6050696.000000
10042963.000000,6103095.000000
10044214.000000,6120809.000000
10044214.000000,6922585.000000
10024212.000000,6990706.000000
10019040.000000,6998150.000000
9964928.000000,7070352.000000
9956390.000000,7085946.000000
9911236.000000,7206394.000000
9907609.000000,7221649.000000
9902083.000000,7272514.000000
9901714.000000,7279328.000000
9901714.000000,7305885.000000
9906189.000000,7321124.000000
9907579.000000,7322329.000000
9915262.000000,7324000.000000
10132542.000000,7324000.000000
10200663.000000,7344002.000000
10221559.000000,7360827.000000
10228765.000000,7368021.000000
10228770.000000,7368025.000000
10237001.000000,7376241.000000
10247638.000000,7380944.000000
10247640.000000,7380945.000000
10338002.000000,7420894.000000
10339267.000000,7421536.000000
10341873.000000,7423536.000000
10349094.000000,7426527.000000
10363734.000000,7432591.000000
10419015.000000,7477139.000000
10441436.000000,7544502.000000
10423878.000000,7613294.000000
10371916.000000,7661672.000000
10363737.000000,7665408.000000
10341873.000000,7674464.000000
10341805.000000,7674300.000000
10338457.000000,7675692.000000
10338868.000000,7676618.000000
10287133.000000,7699598.000000
10236561.000000,7722061.000000
10228342.000000,7730294.000000
10228341.000000,7730295.000000
10221630.000000,7737018.000000
10159347.000000,7771097.000000
10132457.000000,7774000.000000
9919830.000000,7774000.000000
9904591.000000,7778475.000000
9903386.000000,7779865.000000
9901715.000000,7787548.000000
9901715.000000,7818669.000000
9902085.000000,7825490.000000
9907609.000000,7876352.000000
9911235.000000,7891604.000000
9956390.000000,8012054.000000
9964928.000000,8027648.000000
10016349.000000,8096259.000000
10041197.000000,8162765.000000
10040445.000000,8188265.000000
10039032.000000,8199000.000000
10040445.000000,8209730.000000
10040110.000000,8211875.000000
10040110.000000,8215445.000000
10039553.000000,8215445.000000
10029507.000000,8279876.000000
10016349.000000,8301741.000000
9964928.000000,8370352.000000
9956390.000000,8385946.000000
9911236.000000,8506394.000000
9907609.000000,8521649.000000
9902083.000000,8572514.000000
9901714.000000,8579328.000000
9901714.000000,8605885.000000
9906189.000000,8621124.000000
9907579.000000,8622329.000000
9915262.000000,8624000.000000
10132542.000000,8624000.000000
10200663.000000,8644002.000000
10221559.000000,8660827.000000
10228765.000000,8668021.000000
10228770.000000,8668025.000000
10237001.000000,8676241.000000
10247638.000000,8680944.000000
10247640.000000,8680945.000000
10338002.000000,8720894.000000
10339267.000000,8721536.000000
10341873.000000,8723536.000000
10487952.000000,8784044.000000
10605353.000000,8799500.000000
10743714.000000,8799500.000000
10811835.000000,8819502.000000
10858328.000000,8873158.000000
10869714.000000,8925500.000000
10869714.000000,9563884.000000
10874189.000000,9579123.000000
10875579.000000,9580328.000000
10883262.000000,9581999.000000
10924383.000000,9581999.000000
10931204.000000,9581629.000000
10982066.000000,9576105.000000
10997318.000000,9572479.000000
11117768.000000,9527324.000000
11133363.000000,9518786.000000
11235438.000000,9442285.000000
11247998.000000,9429725.000000
11264173.000000,9408142.000000
11321031.000000,9365627.000000
11391850.000000,9360600.000000
11455637.000000,9396179.000000
11566228.000000,9510699.000000
11716503.000000,9609036.000000
11884830.000000,9671636.000000
11891811.000000,9672567.000000
11891813.000000,9672568.000000
12055863.000000,9694457.000000
12055867.000000,9694457.000000
12062844.000000,9695388.000000
12069856.000000,9694750.000000
12069860.000000,9694750.000000
12234674.000000,9679751.000000
12234675.000000,9679751.000000
12241695.000000,9679112.000000
12412496.000000,9623615.000000
12443428.000000,9605176.000000
12560706.000000,9535265.000000
12560708.000000,9535264.000000
12566758.000000,9531657.000000
12696813.000000,9407807.000000
12714284.000000,9381512.000000
12792296.000000,9264093.000000
12796197.000000,9258222.000000
12798700.000000,9251634.000000
12801919.000000,9245370.000000
12804340.000000,9246614.000000
12839754.000000,9199907.000000
12906425.000000,9175505.000000
12975705.000000,9191022.000000
13018483.000000,9229872.000000
13023052.000000,9236521.000000
13027775.000000,9247153.000000
13036006.000000,9255370.000000
13036007.000000,9255371.000000
13067388.000000,9286697.000000
13107001.000000,9326241.000000
13117638.000000,9330944.000000
13117640.000000,9330945.000000
13208002.000000,9370894.000000
13209267.000000,9371536.000000
13211873.000000,9373536.000000
13357952.000000,9434044.000000
13514714.000000,9454682.000000
13522902.000000,9453604.000000
13663288.000000,9435122.000000
13671476.000000,9434044.000000
13817555.000000,9373536.000000
13817623.000000,9373700.000000
13820971.000000,9372308.000000
13820560.000000,9371382.000000
13912232.000000,9330663.000000
13922867.000000,9325939.000000
14001955.000000,9246713.000000
14009401.000000,9229872.000000
14043389.000000,9152993.000000
14043389.000000,9152992.000000
14047220.000000,9144327.000000
14048317.000000,9134916.000000
14050178.000000,9128091.000000
14055332.000000,9113016.000000
14096598.000000,9013392.000000
14096599.000000,9013389.000000
14099758.000000,9005762.000000
14103892.000000,8974361.000000
14112490.000000,8909054.000000
14141213.000000,8844126.000000
14200478.000000,8805035.000000
14237412.000000,8799500.000000
14302095.000000,8799500.000000
14318541.000000,8800578.000000
14349714.000000,8804682.000000
14357902.000000,8803604.000000
14389075.000000,8799500.000000
14498288.000000,8785122.000000
14506476.000000,8784044.000000
14652555.000000,8723536.000000
14777996.000000,8627282.000000
14797144.000000,8602328.000000
14808011.000000,8589938.000000
14866119.000000,8531830.000000
14928431.000000,8497804.000000
14999246.000000,8502869.000000
15056082.000000,8545416.000000
15080893.000000,8611936.000000
15081214.000000,8620925.000000
15081214.000000,9987500.000000
15061212.000000,10055621.000000
15007556.000000,10102114.000000
14955214.000000,10113500.000000
5140214.000000,10113500.000000
5072093.000000,10093498.000000
5025600.000000,10039842.000000
5014214.000000,9987500.000000
5014214.000000,9118669.000000
9901715.000000,9118669.000000
9902085.000000,9125490.000000
9907609.000000,9176352.000000
9911235.000000,9191604.000000
9956390.000000,9312054.000000
9964928.000000,9327649.000000
10041429.000000,9429724.000000
10053990.000000,9442285.000000
10156065.000000,9518786.000000
10171660.000000,9527324.000000
10292108.000000,9572478.000000
10307363.000000,9576105.000000
10358228.000000,9581631.000000
10365042.000000,9582000.000000
10401599.000000,9582000.000000
10416838.000000,9577525.000000
10418043.000000,9576135.000000
10419714.000000,9568452.000000
10419714.000000,9092115.000000
10415239.000000,9076876.000000
10413849.000000,9075671.000000
10406166.000000,9074000.000000
9919830.000000,9074000.000000
9904591.000000,9078475.000000
9903386.000000,9079865.000000
9901715.000000,9087548.000000
9901715.000000,9118669.000000
5014214.000000,9118669.000000
5014214.000000,680500.000000
5034216.000000,612379.000000
5087872.000000,565886.000000
5140214.000000,554500.000000
11359407.000000,554500.000000
Z" /> 
</g>
</g>
</g>
<g style="fill:#FFFFFF; fill-opacity:1.0; 
stroke:#FFFFFF; stroke-width:1.000000; stroke-opacity:1; 
stroke-linecap:round; stroke-linejoin:round;">
<circle cx="7761714.000000" cy="1016000.000000" r="199999.500000" /> 
</g>
<g style="fill:#FFFFFF; fill-opacity:1.0; 
stroke:#FFFFFF; stroke-width:21200.000000; stroke-opacity:1; 
stroke-linecap:round; stroke-linejoin:round;">
</g>
<g style="fill:#FFFFFF; fill-opacity:1.0; 
stroke:#FFFFFF; stroke-width:1.000000; stroke-opacity:1; 
stroke-linecap:round; stroke-linejoin:round;">
<circle cx="9031714.000000" cy="4064000.000000" r="50000.000000" /> 
</g>
<g style="fill:#FFFFFF; fill-opacity:1.0; 
stroke:#FFFFFF; stroke-width:21200.000000; stroke-opacity:1; 
stroke-linecap:round; stroke-linejoin:round;">
</g>
<g style="fill:#FFFFFF; fill-opacity:1.0; 
stroke:#FFFFFF; stroke-width:1.000000; stroke-opacity:1; 
stroke-linecap:round; stroke-linejoin:round;">
<circle cx="12079714.000000" cy="8890000.000000" r="250000.000000" /> 
</g>
<g style="fill:#FFFFFF; fill-opacity:1.0; 
stroke:#FFFFFF; stroke-width:21200.000000; stroke-opacity:1; 
stroke-linecap:round; stroke-linejoin:round;">
</g>
<g style="fill:#FFFFFF; fill-opacity:1.0; 
stroke:#FFFFFF; stroke-width:1.000000; stroke-opacity:1; 
stroke-linecap:round; stroke-linejoin:round;">
<circle cx="10555714.000000" cy="5588000.000000" r="200000.000000" /> 
</g>
<g style="fill:#FFFFFF; fill-opacity:1.0; 
stroke:#FFFFFF; stroke-width:21200.000000; stroke-opacity:1; 
stroke-linecap:round; stroke-linejoin:round;">
</g>
<g style="fill:#FFFFFF; fill-opacity:1.0; 
stroke:#FFFFFF; stroke-width:1.000000; stroke-opacity:1; 
stroke-linecap:round; stroke-linejoin:round;">
<circle cx="8015714.000000" cy="7366000.000000" r="150000.000000" /> 
</g>
<g style="fill:#FFFFFF; fill-opacity:1.0; 
stroke:#FFFFFF; stroke-width:21200.000000; stroke-opacity:1; 
stroke-linecap:round; stroke-linejoin:round;">
</g>
<g style="fill:#FFFFFF; fill-opacity:1.0; 
stroke:#FFFFFF; stroke-width:1.000000; stroke-opacity:1; 
stroke-linecap:round; stroke-linejoin:round;">
<circle cx="7008042.000000" cy="2876559.000000" r="150000.000000" /> 
</g>
<g style="fill:#FFFFFF; fill-opacity:1.0; 
stroke:#FFFFFF; stroke-width:21200.000000; stroke-opacity:1; 
stroke-linecap:round; stroke-linejoin:round;">
</g>
<g style="fill:#FFFFFF; fill-opacity:1.0; 
stroke:#FFFFFF; stroke-width:1.000000; stroke-opacity:1; 
stroke-linecap:round; stroke-linejoin:round;">
<circle cx="8015714.000000" cy="7366000.000000" r="50000.000000" /> 
</g>
<g style="fill:#FFFFFF; fill-opacity:1.0; 
stroke:#FFFFFF; stroke-width:21200.000000; stroke-opacity:1; 
stroke-linecap:round; stroke-linejoin:round;">
</g>
<g style="fill:#FFFFFF; fill-opacity:1.0; 
stroke:#FFFFFF; stroke-width:1.000000; stroke-opacity:1; 
stroke-linecap:round; stroke-linejoin:round;">
<circle cx="12079714.000000" cy="1270000.000000" r="250000.000000" /> 
</g>
<g style="fill:#FFFFFF; fill-opacity:1.0; 
stroke:#FFFFFF; stroke-width:21200.000000; stroke-opacity:1; 
stroke-linecap:round; stroke-linejoin:round;">
</g>
<g style="fill:#FFFFFF; fill-opacity:1.0; 
stroke:#FFFFFF; stroke-width:1.000000; stroke-opacity:1; 
stroke-linecap:round; stroke-linejoin:round;">
<circle cx="12333714.000000" cy="3810000.000000" r="150000.000000" /> 
</g>
<g style="fill:#FFFFFF; fill-opacity:1.0; 
stroke:#FFFFFF; stroke-width:21200.000000; stroke-opacity:1; 
stroke-linecap:round; stroke-linejoin:round;">
</g>
<g style="fill:#FFFFFF; fill-opacity:1.0; 
stroke:#FFFFFF; stroke-width:1.000000; stroke-opacity:1; 
stroke-linecap:round; stroke-linejoin:round;">
<circle cx="14619714.000000" cy="5080000.000000" r="150000.000000" /> 
</g>
<g style="fill:#FFFFFF; fill-opacity:1.0; 
stroke:#FFFFFF; stroke-width:21200.000000; stroke-opacity:1; 
stroke-linecap:round; stroke-linejoin:round;">
</g>
<g style="fill:#FFFFFF; fill-opacity:1.0; 
stroke:#FFFFFF; stroke-width:1.000000; stroke-opacity:1; 
stroke-linecap:round; stroke-linejoin:round;">
<circle cx="12079714.000000" cy="6858000.000000" r="250000.000000" /> 
</g>
<g style="fill:#FFFFFF; fill-opacity:1.0; 
stroke:#FFFFFF; stroke-width:21200.000000; stroke-opacity:1; 
stroke-linecap:round; stroke-linejoin:round;">
</g>
<g style="fill:#FFFFFF; fill-opacity:1.0; 
stroke:#FFFFFF; stroke-width:1.000000; stroke-opacity:1; 
stroke-linecap:round; stroke-linejoin:round;">
<circle cx="13095714.000000" cy="5334000.000000" r="150000.000000" /> 
</g>
<g style="fill:#FFFFFF; fill-opacity:1.0; 
stroke:#FFFFFF; stroke-width:21200.000000; stroke-opacity:1; 
stroke-linecap:round; stroke-linejoin:round;">
</g>
<g style="fill:#000000; fill-opacity:1.0; 
stroke:#000000; stroke-width:21200.000000; stroke-opacity:1; 
stroke-linecap:round; stroke-linejoin:round;">
</g>
<g style="fill:#C2C2C2; fill-opacity:1.0; 
stroke:#C2C2C2; stroke-width:21200.000000; stroke-opacity:1; 
stroke-linecap:round; stroke-linejoin:round;">
</g>
<g style="fill:#C2C2C2; fill-opacity:1.0; 
stroke:#C2C2C2; stroke-width:50000.000000; stroke-opacity:1; 
stroke-linecap:round; stroke-linejoin:round;">
</g>
<g style="fill:#C2C2C2; fill-opacity:0.0; 
stroke:#C2C2C2; stroke-width:50000.000000; stroke-opacity:1; 
stroke-linecap:round; stroke-linejoin:round;">
<text x="12079714.000000" y="3044000.000000"
textLength="1130000.000000" font-size="666666.000000" lengthAdjust="spacingAndGlyphs"
text-anchor="middle" opacity="0">U3</text>
<g class="stroked-text"><desc>U3</desc>
<path d="M11698761 2520190
L11698761 2924952
L11722571 2972571
L11746380 2996380
L11793999 3020190
L11889237 3020190
L11936856 2996380
L11960666 2972571
L11984475 2924952
L11984475 2520190
" />
<path d="M12174952 2520190
L12484475 2520190
L12317809 2710666
L12389237 2710666
L12436856 2734476
L12460666 2758285
L12484475 2805904
L12484475 2924952
L12460666 2972571
L12436856 2996380
L12389237 3020190
L12246380 3020190
L12198761 2996380
L12174952 2972571
" />
</g><text x="12079714.000000" y="8124000.000000"
textLength="1065000.000000" font-size="666666.000000" lengthAdjust="spacingAndGlyphs"
text-anchor="middle" opacity="0">U2</text>
<g class="stroked-text"><desc>U2</desc>
<path d="M11698761 7600190
L11698761 8004952
L11722571 8052571
L11746380 8076380
L11793999 8100190
L11889237 8100190
L11936856 8076380
L11960666 8052571
L11984475 8004952
L11984475 7600190
" />
<path d="M12198761 7647809
L12222571 7624000
L12270190 7600190
L12389237 7600190
L12436856 7624000
L12460666 7647809
L12484475 7695428
L12484475 7743047
L12460666 7814476
L12174952 8100190
L12484475 8100190
" />
</g><text x="8523714.000000" y="5584000.000000"
textLength="1065000.000000" font-size="666666.000000" lengthAdjust="spacingAndGlyphs"
text-anchor="middle" opacity="0">U1</text>
<g class="stroked-text"><desc>U1</desc>
<path d="M8142761 5060190
L8142761 5464952
L8166571 5512571
L8190380 5536380
L8237999 5560190
L8333237 5560190
L8380856 5536380
L8404666 5512571
L8428475 5464952
L8428475 5060190
" />
<path d="M8928475 5560190
L8642761 5560190
" />
<path d="M8785618 5560190
L8785618 5060190
L8737999 5131619
L8690380 5179238
L8642761 5203047
" />
</g><path d="M10250914 4294000
L10250914 1294000
" />
<path d="M12929714 4343400
L11229714 4343400
" />
<path d="M13908514 1294000
L13908514 4294000
" />
<path d="M11229714 1244600
L12929714 1244600
" />
<circle cx="9819114.000000" cy="1803400.000000" r="203200.000000" /> 
<path d="M12929714 9423400
L11229714 9423400
" />
<path d="M10250914 9374000
L10250914 6374000
" />
<path d="M11229714 6324600
L12929714 6324600
" />
<path d="M13908514 6374000
L13908514 9374000
" />
<circle cx="9819114.000000" cy="6883400.000000" r="203200.000000" /> 
<path d="M9412714 4318000
L7634714 4318000
" />
<path d="M7634714 6350000
L7634714 4318000
" />
<path d="M7634714 6350000
L9412714 6350000
" />
<path d="M9412714 4318000
L9412714 6350000
" />
<circle cx="7329914.000000" cy="4622800.000000" r="152400.000000" /> 
<g >
</g>
<g >
</g>
<g >
</g>
<g >
</g>
<g >
</g>
<g >
</g>
<g >
</g>
<g >
</g>
<g >
</g>
<g >
</g>
<g >
</g>
<g >
</g>
</g>
<g style="fill:#FFFFFF; fill-opacity:0.0; 
stroke:#FFFFFF; stroke-width:50000.000000; stroke-opacity:1; 
stroke-linecap:round; stroke-linejoin:round;">
</g>
<g style="fill:#FFFFFF; fill-opacity:1.0; 
stroke:#FFFFFF; stroke-width:1.000000; stroke-opacity:1; 
stroke-linecap:round; stroke-linejoin:round;">
<circle cx="7761714.000000" cy="1016000.000000" r="199999.500000" /> 
</g>
<g style="fill:#FFFFFF; fill-opacity:1.0; 
stroke:#FFFFFF; stroke-width:21200.000000; stroke-opacity:1; 
stroke-linecap:round; stroke-linejoin:round;">
</g>
<g style="fill:#FFFFFF; fill-opacity:1.0; 
stroke:#FFFFFF; stroke-width:1.000000; stroke-opacity:1; 
stroke-linecap:round; stroke-linejoin:round;">
<circle cx="9031714.000000" cy="4064000.000000" r="50000.000000" /> 
</g>
<g style="fill:#FFFFFF; fill-opacity:1.0; 
stroke:#FFFFFF; stroke-width:21200.000000; stroke-opacity:1; 
stroke-linecap:round; stroke-linejoin:round;">
</g>
<g style="fill:#FFFFFF; fill-opacity:1.0; 
stroke:#FFFFFF; stroke-width:1.000000; stroke-opacity:1; 
stroke-linecap:round; stroke-linejoin:round;">
<circle cx="12079714.000000" cy="8890000.000000" r="250000.000000" /> 
</g>
<g style="fill:#FFFFFF; fill-opacity:1.0; 
stroke:#FFFFFF; stroke-width:21200.000000; stroke-opacity:1; 
stroke-linecap:round; stroke-linejoin:round;">
</g>
<g style="fill:#FFFFFF; fill-opacity:1.0; 
stroke:#FFFFFF; stroke-width:1.000000; stroke-opacity:1; 
stroke-linecap:round; stroke-linejoin:round;">
<circle cx="10555714.000000" cy="5588000.000000" r="200000.000000" /> 
</g>
<g style="fill:#FFFFFF; fill-opacity:1.0; 
stroke:#FFFFFF; stroke-width:21200.000000; stroke-opacity:1; 
stroke-linecap:round; stroke-linejoin:round;">
</g>
<g style="fill:#FFFFFF; fill-opacity:1.0; 
stroke:#FFFFFF; stroke-width:1.000000; stroke-opacity:1; 
stroke-linecap:round; stroke-linejoin:round;">
<circle cx="8015714.000000" cy="7366000.000000" r="150000.000000" /> 
</g>
<g style="fill:#FFFFFF; fill-opacity:1.0; 
stroke:#FFFFFF; stroke-width:21200.000000; stroke-opacity:1; 
stroke-linecap:round; stroke-linejoin:round;">
</g>
<g style="fill:#FFFFFF; fill-opacity:1.0; 
stroke:#FFFFFF; stroke-width:1.000000; stroke-opacity:1; 
stroke-linecap:round; stroke-linejoin:round;">
<circle cx="7008042.000000" cy="2876559.000000" r="150000.000000" /> 
</g>
<g style="fill:#FFFFFF; fill-opacity:1.0; 
stroke:#FFFFFF; stroke-width:21200.000000; stroke-opacity:1; 
stroke-linecap:round; stroke-linejoin:round;">
</g>
<g style="fill:#FFFFFF; fill-opacity:1.0; 
stroke:#FFFFFF; stroke-width:1.000000; stroke-opacity:1; 
stroke-linecap:round; stroke-linejoin:round;">
<circle cx="8015714.000000" cy="7366000.000000" r="50000.000000" /> 
</g>
<g style="fill:#FFFFFF; fill-opacity:1.0; 
stroke:#FFFFFF; stroke-width:21200.000000; stroke-opacity:1; 
stroke-linecap:round; stroke-linejoin:round;">
</g>
<g style="fill:#FFFFFF; fill-opacity:1.0; 
stroke:#FFFFFF; stroke-width:1.000000; stroke-opacity:1; 
stroke-linecap:round; stroke-linejoin:round;">
<circle cx="12079714.000000" cy="1270000.000000" r="250000.000000" /> 
</g>
<g style="fill:#FFFFFF; fill-opacity:1.0; 
stroke:#FFFFFF; stroke-width:21200.000000; stroke-opacity:1; 
stroke-linecap:round; stroke-linejoin:round;">
</g>
<g style="fill:#FFFFFF; fill-opacity:1.0; 
stroke:#FFFFFF; stroke-width:1.000000; stroke-opacity:1; 
stroke-linecap:round; stroke-linejoin:round;">
<circle cx="12333714.000000" cy="3810000.000000" r="150000.000000" /> 
</g>
<g style="fill:#FFFFFF; fill-opacity:1.0; 
stroke:#FFFFFF; stroke-width:21200.000000; stroke-opacity:1; 
stroke-linecap:round; stroke-linejoin:round;">
</g>
<g style="fill:#FFFFFF; fill-opacity:1.0; 
stroke:#FFFFFF; stroke-width:1.000000; stroke-opacity:1; 
stroke-linecap:round; stroke-linejoin:round;">
<circle cx="14619714.000000" cy="5080000.000000" r="150000.000000" /> 
</g>
<g style="fill:#FFFFFF; fill-opacity:1.0; 
stroke:#FFFFFF; stroke-width:21200.000000; stroke-opacity:1; 
stroke-linecap:round; stroke-linejoin:round;">
</g>
<g style="fill:#FFFFFF; fill-opacity:1.0; 
stroke:#FFFFFF; stroke-width:1.000000; stroke-opacity:1; 
stroke-linecap:round; stroke-linejoin:round;">
<circle cx="12079714.000000" cy="6858000.000000" r="250000.000000" /> 
</g>
<g style="fill:#FFFFFF; fill-opacity:1.0; 
stroke:#FFFFFF; stroke-width:21200.000000; stroke-opacity:1; 
stroke-linecap:round; stroke-linejoin:round;">
</g>
<g style="fill:#FFFFFF; fill-opacity:1.0; 
stroke:#FFFFFF; stroke-width:1.000000; stroke-opacity:1; 
stroke-linecap:round; stroke-linejoin:round;">
<circle cx="13095714.000000" cy="5334000.000000" r="150000.000000" /> 
</g>
<g style="fill:#FFFFFF; fill-opacity:1.0; 
stroke:#FFFFFF; stroke-width:21200.000000; stroke-opacity:1; 
stroke-linecap:round; stroke-linejoin:round;">
</g>
<g style="fill:#000000; fill-opacity:1.0; 
stroke:#000000; stroke-width:21200.000000; stroke-opacity:1; 
stroke-linecap:round; stroke-linejoin:round;">
</g>
<g style="fill:#C2C2C2; fill-opacity:1.0; 
stroke:#C2C2C2; stroke-width:21200.000000; stroke-opacity:1; 
stroke-linecap:round; stroke-linejoin:round;">
</g>
<g style="fill:#C2C2C2; fill-opacity:1.0; 
stroke:#C2C2C2; stroke-width:100000.000000; stroke-opacity:1; 
stroke-linecap:round; stroke-linejoin:round;">
</g>
<g style="fill:#C2C2C2; fill-opacity:0.0; 
stroke:#C2C2C2; stroke-width:100000.000000; stroke-opacity:1; 
stroke-linecap:round; stroke-linejoin:round;">
<text x="10047714.000000" y="12746000.000000"
textLength="5836429.000000" font-size="800000.000000" lengthAdjust="spacingAndGlyphs"
text-anchor="middle" opacity="0">10.6680 mm</text>
<g class="stroked-text"><desc>10.6680 mm</desc>
<path d="M7619142 12717428
L7276285 12717428
" />
<path d="M7447714 12717428
L7447714 12117428
L7390571 12203142
L7333428 12260285
L7276285 12288857
" />
<path d="M7990571 12117428
L8047714 12117428
L8104856 12146000
L8133428 12174571
L8161999 12231714
L8190571 12346000
L8190571 12488857
L8161999 12603142
L8133428 12660285
L8104856 12688857
L8047714 12717428
L7990571 12717428
L7933428 12688857
L7904856 12660285
L7876285 12603142
L7847714 12488857
L7847714 12346000
L7876285 12231714
L7904856 12174571
L7933428 12146000
L7990571 12117428
" />
<path d="M8447714 12660285
L8476285 12688857
L8447714 12717428
L8419142 12688857
L8447714 12660285
L8447714 12717428
" />
<path d="M8990571 12117428
L8876285 12117428
L8819142 12146000
L8790571 12174571
L8733428 12260285
L8704856 12374571
L8704856 12603142
L8733428 12660285
L8761999 12688857
L8819142 12717428
L8933428 12717428
L8990571 12688857
L9019142 12660285
L9047714 12603142
L9047714 12460285
L9019142 12403142
L8990571 12374571
L8933428 12346000
L8819142 12346000
L8761999 12374571
L8733428 12403142
L8704856 12460285
" />
<path d="M9561999 12117428
L9447714 12117428
L9390571 12146000
L9361999 12174571
L9304856 12260285
L9276285 12374571
L9276285 12603142
L9304856 12660285
L9333428 12688857
L9390571 12717428
L9504856 12717428
L9561999 12688857
L9590571 12660285
L9619142 12603142
L9619142 12460285
L9590571 12403142
L9561999 12374571
L9504856 12346000
L9390571 12346000
L9333428 12374571
L9304856 12403142
L9276285 12460285
" />
<path d="M9961999 12374571
L9904856 12346000
L9876285 12317428
L9847714 12260285
L9847714 12231714
L9876285 12174571
L9904856 12146000
L9961999 12117428
L10076285 12117428
L10133428 12146000
L10161999 12174571
L10190571 12231714
L10190571 12260285
L10161999 12317428
L10133428 12346000
L10076285 12374571
L9961999 12374571
L9904856 12403142
L9876285 12431714
L9847714 12488857
L9847714 12603142
L9876285 12660285
L9904856 12688857
L9961999 12717428
L10076285 12717428
L10133428 12688857
L10161999 12660285
L10190571 12603142
L10190571 12488857
L10161999 12431714
L10133428 12403142
L10076285 12374571
" />
<path d="M10561999 12117428
L10619142 12117428
L10676285 12146000
L10704856 12174571
L10733428 12231714
L10761999 12346000
L10761999 12488857
L10733428 12603142
L10704856 12660285
L10676285 12688857
L10619142 12717428
L10561999 12717428
L10504856 12688857
L10476285 12660285
L10447714 12603142
L10419142 12488857
L10419142 12346000
L10447714 12231714
L10476285 12174571
L10504856 12146000
L10561999 12117428
" />
<path d="M11476285 12717428
L11476285 12317428
" />
<path d="M11476285 12374571
L11504856 12346000
L11561999 12317428
L11647714 12317428
L11704856 12346000
L11733428 12403142
L11733428 12717428
" />
<path d="M11733428 12403142
L11761999 12346000
L11819142 12317428
L11904856 12317428
L11961999 12346000
L11990571 12403142
L11990571 12717428
" />
<path d="M12276285 12717428
L12276285 12317428
" />
<path d="M12276285 12374571
L12304856 12346000
L12361999 12317428
L12447714 12317428
L12504856 12346000
L12533428 12403142
L12533428 12717428
" />
<path d="M12533428 12403142
L12561999 12346000
L12619142 12317428
L12704856 12317428
L12761999 12346000
L12790571 12403142
L12790571 12717428
" />
</g></g>
<g style="fill:#C2C2C2; fill-opacity:1.0; 
stroke:#C2C2C2; stroke-width:1.000000; stroke-opacity:1; 
stroke-linecap:round; stroke-linejoin:round;">
<circle cx="4713714.000000" cy="10414000.000000" r="50000.000000" /> 
<circle cx="15381714.000000" cy="10414000.000000" r="50000.000000" /> 
</g>
<g style="fill:#C2C2C2; fill-opacity:1.0; 
stroke:#C2C2C2; stroke-width:100000.000000; stroke-opacity:1; 
stroke-linecap:round; stroke-linejoin:round;">
</g>
<g style="fill:#C2C2C2; fill-opacity:0.0; 
stroke:#C2C2C2; stroke-width:100000.000000; stroke-opacity:1; 
stroke-linecap:round; stroke-linejoin:round;">
<path d="M4713714 10414000
L15381714 10414000
" />
<path d="M4713714 10414000
L15381714 10414000
" />
<path d="M4713714 10414000
L5157219 10644874
" />
<path d="M4713714 10414000
L5157219 10183126
" />
<path d="M15381714 10414000
L14938209 10183126
" />
<path d="M15381714 10414000
L14938209 10644874
" />
<g transform="rotate(-90.000000 2935714.000000 5334000.000000)">
<text x="2935714.000000" y="5634000.000000"
textLength="5901429.000000" font-size="800000.000000" lengthAdjust="spacingAndGlyphs"
text-anchor="middle" opacity="0">10.1600 mm</text>
</g>
<g class="stroked-text"><desc>10.1600 mm</desc>
<path d="M3207142 7762571
L3207142 8105428
" />
<path d="M3207142 7934000
L2607142 7934000
L2692856 7991142
L2749999 8048285
L2778571 8105428
" />
<path d="M2607142 7391142
L2607142 7334000
L2635714 7276857
L2664285 7248285
L2721428 7219714
L2835714 7191142
L2978571 7191142
L3092856 7219714
L3149999 7248285
L3178571 7276857
L3207142 7334000
L3207142 7391142
L3178571 7448285
L3149999 7476857
L3092856 7505428
L2978571 7534000
L2835714 7534000
L2721428 7505428
L2664285 7476857
L2635714 7448285
L2607142 7391142
" />
<path d="M3149999 6934000
L3178571 6905428
L3207142 6934000
L3178571 6962571
L3149999 6934000
L3207142 6934000
" />
<path d="M3207142 6334000
L3207142 6676857
" />
<path d="M3207142 6505428
L2607142 6505428
L2692856 6562571
L2749999 6619714
L2778571 6676857
" />
<path d="M2607142 5819714
L2607142 5934000
L2635714 5991142
L2664285 6019714
L2749999 6076857
L2864285 6105428
L3092856 6105428
L3149999 6076857
L3178571 6048285
L3207142 5991142
L3207142 5876857
L3178571 5819714
L3149999 5791142
L3092856 5762571
L2949999 5762571
L2892856 5791142
L2864285 5819714
L2835714 5876857
L2835714 5991142
L2864285 6048285
L2892856 6076857
L2949999 6105428
" />
<path d="M2607142 5391142
L2607142 5334000
L2635714 5276857
L2664285 5248285
L2721428 5219714
L2835714 5191142
L2978571 5191142
L3092856 5219714
L3149999 5248285
L3178571 5276857
L3207142 5334000
L3207142 5391142
L3178571 5448285
L3149999 5476857
L3092856 5505428
L2978571 5534000
L2835714 5534000
L2721428 5505428
L2664285 5476857
L2635714 5448285
L2607142 5391142
" />
<path d="M2607142 4819714
L2607142 4762571
L2635714 4705428
L2664285 4676857
L2721428 4648285
L2835714 4619714
L2978571 4619714
L3092856 4648285
L3149999 4676857
L3178571 4705428
L3207142 4762571
L3207142 4819714
L3178571 4876857
L3149999 4905428
L3092856 4934000
L2978571 4962571
L2835714 4962571
L2721428 4934000
L2664285 4905428
L2635714 4876857
L2607142 4819714
" />
<path d="M3207142 3905428
L2807142 3905428
" />
<path d="M2864285 3905428
L2835714 3876857
L2807142 3819714
L2807142 3734000
L2835714 3676857
L2892856 3648285
L3207142 3648285
" />
<path d="M2892856 3648285
L2835714 3619714
L2807142 3562571
L2807142 3476857
L2835714 3419714
L2892856 3391142
L3207142 3391142
" />
<path d="M3207142 3105428
L2807142 3105428
" />
<path d="M2864285 3105428
L2835714 3076857
L2807142 3019714
L2807142 2934000
L2835714 2876857
L2892856 2848285
L3207142 2848285
" />
<path d="M2892856 2848285
L2835714 2819714
L2807142 2762571
L2807142 2676857
L2835714 2619714
L2892856 2591142
L3207142 2591142
" />
</g></g>
<g style="fill:#C2C2C2; fill-opacity:1.0; 
stroke:#C2C2C2; stroke-width:1.000000; stroke-opacity:1; 
stroke-linecap:round; stroke-linejoin:round;">
<circle cx="4713714.000000" cy="254000.000000" r="50000.000000" /> 
<circle cx="4713714.000000" cy="10414000.000000" r="50000.000000" /> 
</g>
<g style="fill:#C2C2C2; fill-opacity:1.0; 
stroke:#C2C2C2; stroke-width:100000.000000; stroke-opacity:1; 
stroke-linecap:round; stroke-linejoin:round;">
</g>
<g style="fill:#C2C2C2; fill-opacity:0.0; 
stroke:#C2C2C2; stroke-width:100000.000000; stroke-opacity:1; 
stroke-linecap:round; stroke-linejoin:round;">
<path d="M4713714 254000
L4713714 10414000
" />
<path d="M4713714 254000
L4713714 10414000
" />
<path d="M4713714 254000
L4482840 697505
" />
<path d="M4713714 254000
L4944588 697505
" />
<path d="M4713714 10414000
L4944588 9970495
" />
<path d="M4713714 10414000
L4482840 9970495
" />
<g >
</g>
<g >
</g>
<g >
</g>
<g >
</g>
<g >
</g>
<g >
</g>
<g >
</g>
<g >
</g>
<g >
</g>
<g >
</g>
<g >
</g>
<g >
</g>
</g>
<g style="fill:#000000; fill-opacity:0.0; 
stroke:#000000; stroke-width:100000.000000; stroke-opacity:1; 
stroke-linecap:round; stroke-linejoin:round;">
</g>
<g style="fill:#E1E225; fill-opacity:0.0; 
stroke:#E1E225; stroke-width:100000.000000; stroke-opacity:1; 
stroke-linecap:round; stroke-linejoin:round;">
<path d="M4713714 254000
L15381714 254000
" />
<path d="M15381714 254000
L15381714 10414000
" />
<path d="M15381714 10414000
L4713714 10414000
" />
<path d="M4713714 10414000
L4713714 254000
" />
<g >
</g>
<g >
</g>
<g >
</g>
<g >
</g>
<g >
</g>
<g >
</g>
<g >
</g>
<g >
</g>
<g >
</g>
<g >
</g>
<g >
</g>
<g >
</g>
</g> 
</svg>
