<?xml version="1.0" standalone="no"?>
 <!DOCTYPE svg PUBLIC "-//W3C//DTD SVG 1.1//EN" 
 "http://www.w3.org/Graphics/SVG/1.1/DTD/svg11.dtd"> 
<svg
  xmlns:svg="http://www.w3.org/2000/svg"
  xmlns="http://www.w3.org/2000/svg"
  xmlns:xlink="http://www.w3.org/1999/xlink"
  version="1.1"
  width="1.562100cm" height="1.297940cm" viewBox="0 0 15621000 12979400">
<title>SVG Picture created as source auto change-B_Cu.svg date 2022/08/02 22:37:50 </title>
  <desc>Picture generated by PCBNEW </desc>
<g style="fill:#000000; fill-opacity:1.000000;stroke:#000000; stroke-opacity:1.000000;
stroke-linecap:round; stroke-linejoin:round;"
 transform="translate(0 0) scale(1 1)">
</g>
<g style="fill:#000000; fill-opacity:0.0; 
stroke:#000000; stroke-width:0.000000; stroke-opacity:1; 
stroke-linecap:round; stroke-linejoin:round;">
<g >
</g>
<g >
</g>
<g >
</g>
<g >
</g>
<g style="fill:#008400; fill-opacity:0.0; 
stroke:#008400; stroke-width:0.000000; stroke-opacity:1; 
stroke-linecap:round; stroke-linejoin:round;">
</g>
<g style="fill:#008400; fill-opacity:0.0; 
stroke:#008400; stroke-width:1.000000; stroke-opacity:1; 
stroke-linecap:round; stroke-linejoin:round;">
</g>
<g style="fill:#008400; fill-opacity:1.0; 
stroke:#008400; stroke-width:1.000000; stroke-opacity:1; 
stroke-linecap:round; stroke-linejoin:round;">
<path style="fill:#008400; fill-opacity:1.0; 
stroke:#008400; stroke-width:1.000000; stroke-opacity:1; 
stroke-linecap:round; stroke-linejoin:round;fill-rule:evenodd;"
d="M 15211714.000000,2881000.000000
15211714.000000,4231000.000000
13011714.000000,4231000.000000
13011714.000000,2881000.000000
Z" /> 
</g>
<g >
</g>
<g style="fill:#008400; fill-opacity:1.0; 
stroke:#008400; stroke-width:1.000000; stroke-opacity:1; 
stroke-linecap:round; stroke-linejoin:round;">
<path style="fill:#008400; fill-opacity:1.0; 
stroke:#008400; stroke-width:1.000000; stroke-opacity:1; 
stroke-linecap:round; stroke-linejoin:round;fill-rule:evenodd;"
d="M 7083714.000000,8469000.000000
7083714.000000,9819000.000000
4883714.000000,9819000.000000
4883714.000000,8469000.000000
Z" /> 
</g>
<g >
</g>
<g style="fill:#008400; fill-opacity:1.0; 
stroke:#008400; stroke-width:1.000000; stroke-opacity:1; 
stroke-linecap:round; stroke-linejoin:round;">
<path style="fill:#008400; fill-opacity:1.0; 
stroke:#008400; stroke-width:1.000000; stroke-opacity:1; 
stroke-linecap:round; stroke-linejoin:round;fill-rule:evenodd;"
d="M 4883714.000000,4739000.000000
4883714.000000,3389000.000000
7083714.000000,3389000.000000
7083714.000000,4739000.000000
Z" /> 
</g>
<g >
</g>
<g style="fill:#008400; fill-opacity:1.0; 
stroke:#008400; stroke-width:1.000000; stroke-opacity:1; 
stroke-linecap:round; stroke-linejoin:round;">
<path style="fill:#008400; fill-opacity:1.0; 
stroke:#008400; stroke-width:1.000000; stroke-opacity:1; 
stroke-linecap:round; stroke-linejoin:round;fill-rule:evenodd;"
d="M 15211714.000000,6437000.000000
15211714.000000,7787000.000000
13011714.000000,7787000.000000
13011714.000000,6437000.000000
Z" /> 
</g>
<g >
</g>
<g style="fill:#008400; fill-opacity:1.0; 
stroke:#008400; stroke-width:1.000000; stroke-opacity:1; 
stroke-linecap:round; stroke-linejoin:round;">
<path style="fill:#008400; fill-opacity:1.0; 
stroke:#008400; stroke-width:1.000000; stroke-opacity:1; 
stroke-linecap:round; stroke-linejoin:round;fill-rule:evenodd;"
d="M 7083714.000000,849000.000000
7083714.000000,2199000.000000
4883714.000000,2199000.000000
4883714.000000,849000.000000
Z" /> 
</g>
<g >
</g>
<g style="fill:#008400; fill-opacity:1.0; 
stroke:#008400; stroke-width:1.000000; stroke-opacity:1; 
stroke-linecap:round; stroke-linejoin:round;">
<path style="fill:#008400; fill-opacity:1.0; 
stroke:#008400; stroke-width:1.000000; stroke-opacity:1; 
stroke-linecap:round; stroke-linejoin:round;fill-rule:evenodd;"
d="M 7083714.000000,5929000.000000
7083714.000000,7279000.000000
4883714.000000,7279000.000000
4883714.000000,5929000.000000
Z" /> 
</g>
<g >
</g>
<g style="fill:#C2C2C2; fill-opacity:1.0; 
stroke:#C2C2C2; stroke-width:1.000000; stroke-opacity:1; 
stroke-linecap:round; stroke-linejoin:round;">
<circle cx="7761714.000000" cy="1016000.000000" r="200000.000000" /> 
</g>
<g style="fill:#C2C2C2; fill-opacity:1.0; 
stroke:#C2C2C2; stroke-width:21200.000000; stroke-opacity:1; 
stroke-linecap:round; stroke-linejoin:round;">
</g>
<g style="fill:#C2C2C2; fill-opacity:1.0; 
stroke:#C2C2C2; stroke-width:1.000000; stroke-opacity:1; 
stroke-linecap:round; stroke-linejoin:round;">
<circle cx="9031714.000000" cy="4064000.000000" r="100000.000000" /> 
</g>
<g style="fill:#C2C2C2; fill-opacity:1.0; 
stroke:#C2C2C2; stroke-width:21200.000000; stroke-opacity:1; 
stroke-linecap:round; stroke-linejoin:round;">
</g>
<g style="fill:#C2C2C2; fill-opacity:1.0; 
stroke:#C2C2C2; stroke-width:1.000000; stroke-opacity:1; 
stroke-linecap:round; stroke-linejoin:round;">
<circle cx="12079714.000000" cy="8890000.000000" r="500000.000000" /> 
</g>
<g style="fill:#C2C2C2; fill-opacity:1.0; 
stroke:#C2C2C2; stroke-width:21200.000000; stroke-opacity:1; 
stroke-linecap:round; stroke-linejoin:round;">
</g>
<g style="fill:#C2C2C2; fill-opacity:1.0; 
stroke:#C2C2C2; stroke-width:1.000000; stroke-opacity:1; 
stroke-linecap:round; stroke-linejoin:round;">
<circle cx="10555714.000000" cy="5588000.000000" r="400000.000000" /> 
</g>
<g style="fill:#C2C2C2; fill-opacity:1.0; 
stroke:#C2C2C2; stroke-width:21200.000000; stroke-opacity:1; 
stroke-linecap:round; stroke-linejoin:round;">
</g>
<g style="fill:#C2C2C2; fill-opacity:1.0; 
stroke:#C2C2C2; stroke-width:1.000000; stroke-opacity:1; 
stroke-linecap:round; stroke-linejoin:round;">
<circle cx="8015714.000000" cy="7366000.000000" r="250000.000000" /> 
</g>
<g style="fill:#C2C2C2; fill-opacity:1.0; 
stroke:#C2C2C2; stroke-width:21200.000000; stroke-opacity:1; 
stroke-linecap:round; stroke-linejoin:round;">
</g>
<g style="fill:#C2C2C2; fill-opacity:1.0; 
stroke:#C2C2C2; stroke-width:1.000000; stroke-opacity:1; 
stroke-linecap:round; stroke-linejoin:round;">
<circle cx="7008042.000000" cy="2876559.000000" r="250000.000000" /> 
</g>
<g style="fill:#C2C2C2; fill-opacity:1.0; 
stroke:#C2C2C2; stroke-width:21200.000000; stroke-opacity:1; 
stroke-linecap:round; stroke-linejoin:round;">
</g>
<g style="fill:#C2C2C2; fill-opacity:1.0; 
stroke:#C2C2C2; stroke-width:1.000000; stroke-opacity:1; 
stroke-linecap:round; stroke-linejoin:round;">
<circle cx="12079714.000000" cy="1270000.000000" r="500000.000000" /> 
</g>
<g style="fill:#C2C2C2; fill-opacity:1.0; 
stroke:#C2C2C2; stroke-width:21200.000000; stroke-opacity:1; 
stroke-linecap:round; stroke-linejoin:round;">
</g>
<g style="fill:#C2C2C2; fill-opacity:1.0; 
stroke:#C2C2C2; stroke-width:1.000000; stroke-opacity:1; 
stroke-linecap:round; stroke-linejoin:round;">
<circle cx="12333714.000000" cy="3810000.000000" r="250000.000000" /> 
</g>
<g style="fill:#C2C2C2; fill-opacity:1.0; 
stroke:#C2C2C2; stroke-width:21200.000000; stroke-opacity:1; 
stroke-linecap:round; stroke-linejoin:round;">
</g>
<g style="fill:#C2C2C2; fill-opacity:1.0; 
stroke:#C2C2C2; stroke-width:1.000000; stroke-opacity:1; 
stroke-linecap:round; stroke-linejoin:round;">
<circle cx="14619714.000000" cy="5080000.000000" r="250000.000000" /> 
</g>
<g style="fill:#C2C2C2; fill-opacity:1.0; 
stroke:#C2C2C2; stroke-width:21200.000000; stroke-opacity:1; 
stroke-linecap:round; stroke-linejoin:round;">
</g>
<g style="fill:#C2C2C2; fill-opacity:1.0; 
stroke:#C2C2C2; stroke-width:1.000000; stroke-opacity:1; 
stroke-linecap:round; stroke-linejoin:round;">
<circle cx="12079714.000000" cy="6858000.000000" r="500000.000000" /> 
</g>
<g style="fill:#C2C2C2; fill-opacity:1.0; 
stroke:#C2C2C2; stroke-width:21200.000000; stroke-opacity:1; 
stroke-linecap:round; stroke-linejoin:round;">
</g>
<g style="fill:#C2C2C2; fill-opacity:1.0; 
stroke:#C2C2C2; stroke-width:1.000000; stroke-opacity:1; 
stroke-linecap:round; stroke-linejoin:round;">
<circle cx="13095714.000000" cy="5334000.000000" r="250000.000000" /> 
</g>
<g style="fill:#C2C2C2; fill-opacity:1.0; 
stroke:#C2C2C2; stroke-width:21200.000000; stroke-opacity:1; 
stroke-linecap:round; stroke-linejoin:round;">
</g>
<g >
</g>
<g style="fill:#008400; fill-opacity:1.0; 
stroke:#008400; stroke-width:21200.000000; stroke-opacity:1; 
stroke-linecap:round; stroke-linejoin:round;">
</g>
<g style="fill:#008400; fill-opacity:1.0; 
stroke:#008400; stroke-width:600000.000000; stroke-opacity:1; 
stroke-linecap:round; stroke-linejoin:round;">
</g>
<g style="fill:#008400; fill-opacity:0.0; 
stroke:#008400; stroke-width:600000.000000; stroke-opacity:1; 
stroke-linecap:round; stroke-linejoin:round;">
<path d="M7253714 1524000
L7761714 1016000
" />
<path d="M5983714 1524000
L7253714 1524000
" />
<path d="M7507714 5588000
L5983714 4064000
" />
<path d="M10555714 5588000
L7507714 5588000
" />
<path d="M8015714 7366000
L8015714 8382000
" />
<path d="M8015714 8382000
L7253714 9144000
" />
<path d="M12079714 1270000
L8614601 1270000
" />
</g>
<g style="fill:#008400; fill-opacity:0.0; 
stroke:#008400; stroke-width:200000.000000; stroke-opacity:1; 
stroke-linecap:round; stroke-linejoin:round;">
<path d="M6237714 9144000
L5983714 9144000
" />
</g>
<g style="fill:#008400; fill-opacity:0.0; 
stroke:#008400; stroke-width:600000.000000; stroke-opacity:1; 
stroke-linecap:round; stroke-linejoin:round;">
<path d="M8614601 1270000
L7008042 2876559
" />
<path d="M7253714 9144000
L5983714 9144000
" />
<path d="M14619714 4064000
L14111714 3556000
" />
<path d="M12333714 3810000
L13857714 3810000
" />
<path d="M13857714 3810000
L14111714 3556000
" />
<path d="M14619714 5080000
L14619714 4064000
" />
<path d="M13095714 6096000
L14111714 7112000
" />
</g>
<g style="fill:#008400; fill-opacity:0.0; 
stroke:#008400; stroke-width:1000000.000000; stroke-opacity:1; 
stroke-linecap:round; stroke-linejoin:round;">
<path d="M12079714 6858000
L13857714 6858000
" />
</g>
<g style="fill:#008400; fill-opacity:0.0; 
stroke:#008400; stroke-width:600000.000000; stroke-opacity:1; 
stroke-linecap:round; stroke-linejoin:round;">
<path d="M13095714 5334000
L13095714 6096000
" />
</g>
<g style="fill:#008400; fill-opacity:0.0; 
stroke:#008400; stroke-width:1000000.000000; stroke-opacity:1; 
stroke-linecap:round; stroke-linejoin:round;">
<path d="M13857714 6858000
L14111714 7112000
" />
</g>
<g >
</g>
<g style="fill:#008400; fill-opacity:0.0; 
stroke:#008400; stroke-width:1000000.000000; stroke-opacity:1; 
stroke-linecap:round; stroke-linejoin:round;">
<g >
</g>
<g style="fill:#008400; fill-opacity:1.0; 
stroke:#008400; stroke-width:1.000000; stroke-opacity:1; 
stroke-linecap:round; stroke-linejoin:round;">
<path style="fill:#008400; fill-opacity:1.0; 
stroke:#008400; stroke-width:1.000000; stroke-opacity:1; 
stroke-linecap:round; stroke-linejoin:round;fill-rule:evenodd;"
d="M 15023335.000000,574502.000000
15069828.000000,628158.000000
15081214.000000,680500.000000
15081214.000000,2454500.000000
15061212.000000,2522621.000000
15007556.000000,2569114.000000
14955214.000000,2580500.000000
12967068.000000,2580500.000000
12963364.000000,2580941.000000
12963361.000000,2580941.000000
12955968.000000,2581821.000000
12940868.000000,2583618.000000
12838561.000000,2629061.000000
12759473.000000,2708287.000000
12714208.000000,2810673.000000
12711214.000000,2836354.000000
12711214.000000,3083500.000000
12691212.000000,3151621.000000
12637556.000000,3198114.000000
12585214.000000,3209500.000000
12294353.000000,3209500.000000
12176952.000000,3224956.000000
12030873.000000,3285464.000000
11905432.000000,3381718.000000
11809178.000000,3507159.000000
11748670.000000,3653238.000000
11728032.000000,3810000.000000
11748670.000000,3966762.000000
11809178.000000,4112841.000000
11905432.000000,4238282.000000
12030873.000000,4334536.000000
12176952.000000,4395044.000000
12294353.000000,4410500.000000
12714006.000000,4410500.000000
12782127.000000,4430502.000000
12803023.000000,4447327.000000
12830765.000000,4475021.000000
12830770.000000,4475025.000000
12839001.000000,4483241.000000
12849640.000000,4487944.000000
12849642.000000,4487946.000000
12928451.000000,4522787.000000
12982667.000000,4568625.000000
13003495.000000,4636498.000000
12984321.000000,4704856.000000
12925722.000000,4754436.000000
12792873.000000,4809464.000000
12786322.000000,4814491.000000
12689474.000000,4888805.000000
12667432.000000,4905718.000000
12662409.000000,4912264.000000
12650814.000000,4927375.000000
12571178.000000,5031159.000000
12510670.000000,5177238.000000
12509592.000000,5185426.000000
12503912.000000,5228574.000000
12495214.000000,5294639.000000
12495214.000000,5931500.000000
12475212.000000,5999621.000000
12421556.000000,6046114.000000
12369214.000000,6057500.000000
12135136.000000,6057500.000000
12120217.000000,6056614.000000
12114883.000000,6055978.000000
12085338.000000,6052455.000000
12039544.000000,6057268.000000
12036659.000000,6057500.000000
12034559.000000,6057500.000000
12031071.000000,6057891.000000
12031058.000000,6057892.000000
11993652.000000,6062088.000000
11992779.000000,6062183.000000
11924071.000000,6069405.000000
11906731.000000,6071227.000000
11904053.000000,6072139.000000
11901242.000000,6072454.000000
11895121.000000,6074586.000000
11895119.000000,6074586.000000
11819507.000000,6100917.000000
11818675.000000,6101204.000000
11742854.000000,6127015.000000
11742853.000000,6127016.000000
11736721.000000,6129103.000000
11734313.000000,6130585.000000
11731641.000000,6131515.000000
11686892.000000,6159477.000000
11658201.000000,6177405.000000
11657455.000000,6177867.000000
11640172.000000,6188500.000000
11583759.000000,6223206.000000
11581738.000000,6225185.000000
11579339.000000,6226684.000000
11574754.000000,6231238.000000
11574753.000000,6231238.000000
11517909.000000,6287687.000000
11517282.000000,6288305.000000
11455446.000000,6348859.000000
11453913.000000,6351238.000000
11451907.000000,6353230.000000
11405324.000000,6426633.000000
11358160.000000,6499817.000000
11357192.000000,6502477.000000
11355677.000000,6504864.000000
11353507.000000,6510957.000000
11353503.000000,6510966.000000
11326631.000000,6586433.000000
11326333.000000,6587262.000000
11296736.000000,6668578.000000
11296381.000000,6671386.000000
11295433.000000,6674049.000000
11294670.000000,6680452.000000
11294669.000000,6680454.000000
11285186.000000,6759983.000000
11285079.000000,6760855.000000
11274228.000000,6846753.000000
11274504.000000,6849567.000000
11274169.000000,6852376.000000
11275728.000000,6867204.000000
11283221.000000,6938496.000000
11283300.000000,6939274.000000
11291753.000000,7025486.000000
11292645.000000,7028168.000000
11292941.000000,7030983.000000
11295023.000000,7037098.000000
11295024.000000,7037104.000000
11320842.000000,7112943.000000
11321123.000000,7113777.000000
11348440.000000,7195896.000000
11349906.000000,7198316.000000
11350817.000000,7200993.000000
11360927.000000,7217426.000000
11396151.000000,7274681.000000
11396610.000000,7275433.000000
11438127.000000,7343988.000000
11438130.000000,7343991.000000
11441473.000000,7349512.000000
11443439.000000,7351548.000000
11444920.000000,7353955.000000
11449434.000000,7358565.000000
11449439.000000,7358571.000000
11505504.000000,7415822.000000
11506063.000000,7416396.000000
11566228.000000,7478699.000000
11568594.000000,7480248.000000
11570573.000000,7482268.000000
11643394.000000,7529198.000000
11644051.000000,7529625.000000
11711106.000000,7573505.000000
11711110.000000,7573507.000000
11716503.000000,7577036.000000
11719153.000000,7578022.000000
11721531.000000,7579554.000000
11802912.000000,7609174.000000
11803589.000000,7609423.000000
11884830.000000,7639636.000000
11887632.000000,7640010.000000
11890292.000000,7640978.000000
11896706.000000,7641788.000000
11896709.000000,7641789.000000
11937234.000000,7646908.000000
11976369.000000,7651851.000000
11976946.000000,7651926.000000
12030101.000000,7659019.000000
12055865.000000,7662457.000000
12055867.000000,7662457.000000
12062844.000000,7663388.000000
12069855.000000,7662750.000000
12069859.000000,7662750.000000
12110853.000000,7659019.000000
12122272.000000,7658500.000000
12585214.000000,7658500.000000
12653335.000000,7678502.000000
12699828.000000,7732158.000000
12711214.000000,7784500.000000
12711214.000000,7831646.000000
12714332.000000,7857846.000000
12718170.000000,7866486.000000
12718170.000000,7866487.000000
12738830.000000,7913000.000000
12759775.000000,7960153.000000
12839001.000000,8039241.000000
12849638.000000,8043944.000000
12849640.000000,8043945.000000
12909176.000000,8070265.000000
12941387.000000,8084506.000000
12967068.000000,8087500.000000
14955214.000000,8087500.000000
15023335.000000,8107502.000000
15069828.000000,8161158.000000
15081214.000000,8213500.000000
15081214.000000,9987500.000000
15061212.000000,10055621.000000
15007556.000000,10102114.000000
14955214.000000,10113500.000000
7475582.000000,10113500.000000
7407461.000000,10093498.000000
7360968.000000,10039842.000000
7350864.000000,9969568.000000
7360342.000000,9936553.000000
7377388.000000,9897995.000000
7377388.000000,9897994.000000
7381220.000000,9889327.000000
7384214.000000,9863646.000000
7384214.000000,9824113.000000
7404216.000000,9755992.000000
7461995.000000,9707704.000000
7556555.000000,9668536.000000
7681996.000000,9572282.000000
7701144.000000,9547328.000000
7712011.000000,9534938.000000
8406652.000000,8840297.000000
8419043.000000,8829429.000000
8437450.000000,8815305.000000
8443996.000000,8810282.000000
8540250.000000,8684841.000000
8600758.000000,8538762.000000
8616214.000000,8421361.000000
8621396.000000,8382000.000000
8617292.000000,8350827.000000
8616214.000000,8334381.000000
8616214.000000,7326639.000000
8600758.000000,7209238.000000
8540250.000000,7063159.000000
8443996.000000,6937718.000000
8318555.000000,6841464.000000
8172476.000000,6780956.000000
8015714.000000,6760318.000000
7858952.000000,6780956.000000
7712873.000000,6841464.000000
7706319.000000,6846493.000000
7699171.000000,6850620.000000
7697388.000000,6847532.000000
7646383.000000,6867204.000000
7609216.000000,6864754.000000
7578167.000000,6858000.000000
6255829.000000,6858000.000000
6240590.000000,6862475.000000
6239385.000000,6863865.000000
6237714.000000,6871548.000000
6237714.000000,7768884.000000
6242189.000000,7784123.000000
6243579.000000,7785328.000000
6251262.000000,7786999.000000
7128383.000000,7786999.000000
7135204.000000,7786629.000000
7186066.000000,7781105.000000
7201317.000000,7777479.000000
7244984.000000,7761109.000000
7315791.000000,7755926.000000
7378160.000000,7789846.000000
7412289.000000,7852102.000000
7415214.000000,7879091.000000
7415214.000000,8081075.000000
7395212.000000,8149196.000000
7378309.000000,8170170.000000
7369700.000000,8178779.000000
7307388.000000,8212805.000000
7236573.000000,8207740.000000
7229657.000000,8204924.000000
7162706.000000,8175325.000000
7162707.000000,8175325.000000
7154041.000000,8171494.000000
7128360.000000,8168500.000000
5140214.000000,8168500.000000
5072093.000000,8148498.000000
5025600.000000,8094842.000000
5014214.000000,8042500.000000
5014214.000000,7913000.000000
5034216.000000,7844879.000000
5087872.000000,7798386.000000
5140214.000000,7787000.000000
5711599.000000,7787000.000000
5726838.000000,7782525.000000
5728043.000000,7781135.000000
5729714.000000,7773452.000000
5729714.000000,5439116.000000
5725239.000000,5423877.000000
5723849.000000,5422672.000000
5716166.000000,5421001.000000
5140214.000000,5421001.000000
5072093.000000,5400999.000000
5025600.000000,5347343.000000
5014214.000000,5295001.000000
5014214.000000,5165500.000000
5034216.000000,5097379.000000
5087872.000000,5050886.000000
5140214.000000,5039500.000000
6057789.000000,5039500.000000
6125910.000000,5059502.000000
6146884.000000,5076405.000000
6287829.000000,5217350.000000
6321855.000000,5279662.000000
6316790.000000,5350477.000000
6274243.000000,5407313.000000
6242603.000000,5423152.000000
6239385.000000,5426865.000000
6237714.000000,5434548.000000
6237714.000000,6331885.000000
6242189.000000,6347124.000000
6243579.000000,6348329.000000
6251262.000000,6350000.000000
7573598.000000,6350000.000000
7588837.000000,6345525.000000
7590042.000000,6344135.000000
7591713.000000,6336452.000000
7591713.000000,6314500.000000
7611715.000000,6246379.000000
7665371.000000,6199886.000000
7717713.000000,6188500.000000
10161561.000000,6188500.000000
10221683.000000,6203769.000000
10289272.000000,6240467.000000
10289274.000000,6240468.000000
10295949.000000,6244092.000000
10303298.000000,6246020.000000
10452597.000000,6285188.000000
10452599.000000,6285188.000000
10459947.000000,6287116.000000
10546323.000000,6288473.000000
10621875.000000,6289660.000000
10621878.000000,6289660.000000
10629474.000000,6289779.000000
10636879.000000,6288083.000000
10636880.000000,6288083.000000
10697300.000000,6274245.000000
10794743.000000,6251928.000000
10946212.000000,6175747.000000
11025427.000000,6108090.000000
11069365.000000,6070564.000000
11069366.000000,6070563.000000
11075137.000000,6065634.000000
11174075.000000,5927947.000000
11176908.000000,5920900.000000
11234480.000000,5777687.000000
11234481.000000,5777685.000000
11237315.000000,5770634.000000
11252189.000000,5666122.000000
11260623.000000,5606862.000000
11260623.000000,5606859.000000
11261204.000000,5602778.000000
11261359.000000,5588000.000000
11240990.000000,5419680.000000
11181059.000000,5261077.000000
11123438.000000,5177238.000000
11089328.000000,5127608.000000
11089327.000000,5127607.000000
11085026.000000,5121349.000000
11079355.000000,5116296.000000
10964106.000000,5013612.000000
10964102.000000,5013610.000000
10958435.000000,5008560.000000
10918660.000000,4987500.000000
10848958.000000,4950595.000000
10808595.000000,4929224.000000
10644155.000000,4887919.000000
10636557.000000,4887879.000000
10636555.000000,4887879.000000
10559382.000000,4887475.000000
10474609.000000,4887031.000000
10467222.000000,4888805.000000
10467218.000000,4888805.000000
10369508.000000,4912264.000000
10309746.000000,4926612.000000
10303002.000000,4930093.000000
10302999.000000,4930094.000000
10218968.000000,4973466.000000
10161178.000000,4987500.000000
7808640.000000,4987500.000000
7740519.000000,4967498.000000
7719545.000000,4950595.000000
7421119.000000,4652169.000000
7387093.000000,4589857.000000
7384214.000000,4563074.000000
7384214.000000,3401812.000000
7404216.000000,3333691.000000
7421119.000000,3312717.000000
8826431.000000,1907405.000000
8888743.000000,1873379.000000
8915526.000000,1870500.000000
11497799.000000,1870500.000000
11566792.000000,1891068.000000
11716503.000000,1989036.000000
11884830.000000,2051636.000000
11891811.000000,2052567.000000
11891813.000000,2052568.000000
12055863.000000,2074457.000000
12055867.000000,2074457.000000
12062844.000000,2075388.000000
12069856.000000,2074750.000000
12069860.000000,2074750.000000
12234674.000000,2059751.000000
12234675.000000,2059751.000000
12241695.000000,2059112.000000
12412496.000000,2003615.000000
12443428.000000,1985176.000000
12560706.000000,1915265.000000
12560708.000000,1915264.000000
12566758.000000,1911657.000000
12696813.000000,1787807.000000
12796197.000000,1638222.000000
12810882.000000,1599564.000000
12857471.000000,1476919.000000
12857472.000000,1476914.000000
12859971.000000,1470336.000000
12884965.000000,1292493.000000
12885279.000000,1270000.000000
12865260.000000,1091528.000000
12806199.000000,921927.000000
12711030.000000,769625.000000
12706066.000000,764627.000000
12701690.000000,759105.000000
12704141.000000,757163.000000
12676898.000000,706921.000000
12682171.000000,636120.000000
12724885.000000,579410.000000
12791478.000000,554795.000000
12800097.000000,554500.000000
14955214.000000,554500.000000
Z" /> 
</g>
</g>
</g>
<g style="fill:#FFFFFF; fill-opacity:1.0; 
stroke:#FFFFFF; stroke-width:1.000000; stroke-opacity:1; 
stroke-linecap:round; stroke-linejoin:round;">
<circle cx="7761714.000000" cy="1016000.000000" r="125000.000000" /> 
</g>
<g style="fill:#FFFFFF; fill-opacity:1.0; 
stroke:#FFFFFF; stroke-width:21200.000000; stroke-opacity:1; 
stroke-linecap:round; stroke-linejoin:round;">
</g>
<g style="fill:#FFFFFF; fill-opacity:1.0; 
stroke:#FFFFFF; stroke-width:1.000000; stroke-opacity:1; 
stroke-linecap:round; stroke-linejoin:round;">
<circle cx="9031714.000000" cy="4064000.000000" r="50000.000000" /> 
</g>
<g style="fill:#FFFFFF; fill-opacity:1.0; 
stroke:#FFFFFF; stroke-width:21200.000000; stroke-opacity:1; 
stroke-linecap:round; stroke-linejoin:round;">
</g>
<g style="fill:#FFFFFF; fill-opacity:1.0; 
stroke:#FFFFFF; stroke-width:1.000000; stroke-opacity:1; 
stroke-linecap:round; stroke-linejoin:round;">
<circle cx="12079714.000000" cy="8890000.000000" r="250000.000000" /> 
</g>
<g style="fill:#FFFFFF; fill-opacity:1.0; 
stroke:#FFFFFF; stroke-width:21200.000000; stroke-opacity:1; 
stroke-linecap:round; stroke-linejoin:round;">
</g>
<g style="fill:#FFFFFF; fill-opacity:1.0; 
stroke:#FFFFFF; stroke-width:1.000000; stroke-opacity:1; 
stroke-linecap:round; stroke-linejoin:round;">
<circle cx="10555714.000000" cy="5588000.000000" r="200000.000000" /> 
</g>
<g style="fill:#FFFFFF; fill-opacity:1.0; 
stroke:#FFFFFF; stroke-width:21200.000000; stroke-opacity:1; 
stroke-linecap:round; stroke-linejoin:round;">
</g>
<g style="fill:#FFFFFF; fill-opacity:1.0; 
stroke:#FFFFFF; stroke-width:1.000000; stroke-opacity:1; 
stroke-linecap:round; stroke-linejoin:round;">
<circle cx="8015714.000000" cy="7366000.000000" r="150000.000000" /> 
</g>
<g style="fill:#FFFFFF; fill-opacity:1.0; 
stroke:#FFFFFF; stroke-width:21200.000000; stroke-opacity:1; 
stroke-linecap:round; stroke-linejoin:round;">
</g>
<g style="fill:#FFFFFF; fill-opacity:1.0; 
stroke:#FFFFFF; stroke-width:1.000000; stroke-opacity:1; 
stroke-linecap:round; stroke-linejoin:round;">
<circle cx="7008042.000000" cy="2876559.000000" r="150000.000000" /> 
</g>
<g style="fill:#FFFFFF; fill-opacity:1.0; 
stroke:#FFFFFF; stroke-width:21200.000000; stroke-opacity:1; 
stroke-linecap:round; stroke-linejoin:round;">
</g>
<g style="fill:#FFFFFF; fill-opacity:1.0; 
stroke:#FFFFFF; stroke-width:1.000000; stroke-opacity:1; 
stroke-linecap:round; stroke-linejoin:round;">
<circle cx="12079714.000000" cy="1270000.000000" r="250000.000000" /> 
</g>
<g style="fill:#FFFFFF; fill-opacity:1.0; 
stroke:#FFFFFF; stroke-width:21200.000000; stroke-opacity:1; 
stroke-linecap:round; stroke-linejoin:round;">
</g>
<g style="fill:#FFFFFF; fill-opacity:1.0; 
stroke:#FFFFFF; stroke-width:1.000000; stroke-opacity:1; 
stroke-linecap:round; stroke-linejoin:round;">
<circle cx="12333714.000000" cy="3810000.000000" r="150000.000000" /> 
</g>
<g style="fill:#FFFFFF; fill-opacity:1.0; 
stroke:#FFFFFF; stroke-width:21200.000000; stroke-opacity:1; 
stroke-linecap:round; stroke-linejoin:round;">
</g>
<g style="fill:#FFFFFF; fill-opacity:1.0; 
stroke:#FFFFFF; stroke-width:1.000000; stroke-opacity:1; 
stroke-linecap:round; stroke-linejoin:round;">
<circle cx="14619714.000000" cy="5080000.000000" r="150000.000000" /> 
</g>
<g style="fill:#FFFFFF; fill-opacity:1.0; 
stroke:#FFFFFF; stroke-width:21200.000000; stroke-opacity:1; 
stroke-linecap:round; stroke-linejoin:round;">
</g>
<g style="fill:#FFFFFF; fill-opacity:1.0; 
stroke:#FFFFFF; stroke-width:1.000000; stroke-opacity:1; 
stroke-linecap:round; stroke-linejoin:round;">
<circle cx="12079714.000000" cy="6858000.000000" r="250000.000000" /> 
</g>
<g style="fill:#FFFFFF; fill-opacity:1.0; 
stroke:#FFFFFF; stroke-width:21200.000000; stroke-opacity:1; 
stroke-linecap:round; stroke-linejoin:round;">
</g>
<g style="fill:#FFFFFF; fill-opacity:1.0; 
stroke:#FFFFFF; stroke-width:1.000000; stroke-opacity:1; 
stroke-linecap:round; stroke-linejoin:round;">
<circle cx="13095714.000000" cy="5334000.000000" r="150000.000000" /> 
</g>
<g style="fill:#FFFFFF; fill-opacity:1.0; 
stroke:#FFFFFF; stroke-width:21200.000000; stroke-opacity:1; 
stroke-linecap:round; stroke-linejoin:round;">
</g>
<g style="fill:#000000; fill-opacity:1.0; 
stroke:#000000; stroke-width:21200.000000; stroke-opacity:1; 
stroke-linecap:round; stroke-linejoin:round;">
</g>
<g style="fill:#E1E225; fill-opacity:1.0; 
stroke:#E1E225; stroke-width:21200.000000; stroke-opacity:1; 
stroke-linecap:round; stroke-linejoin:round;">
</g>
<g style="fill:#E1E225; fill-opacity:1.0; 
stroke:#E1E225; stroke-width:100000.000000; stroke-opacity:1; 
stroke-linecap:round; stroke-linejoin:round;">
</g>
<g style="fill:#E1E225; fill-opacity:0.0; 
stroke:#E1E225; stroke-width:100000.000000; stroke-opacity:1; 
stroke-linecap:round; stroke-linejoin:round;">
<path d="M4713714 254000
L15381714 254000
" />
<path d="M15381714 254000
L15381714 10414000
" />
<path d="M15381714 10414000
L4713714 10414000
" />
<path d="M4713714 10414000
L4713714 254000
" />
<g >
</g>
<g >
</g>
<g >
</g>
<g >
</g>
<g >
</g>
<g >
</g>
<g >
</g>
<g >
</g>
<g >
</g>
<g >
</g>
<g >
</g>
<g >
</g>
</g> 
</svg>
