%TF.GenerationSoftware,KiCad,Pcbnew,6.0.5-2.fc36*%
%TF.CreationDate,2022-06-19T11:45:17+04:00*%
%TF.ProjectId,source auto change,736f7572-6365-4206-9175-746f20636861,rev?*%
%TF.SameCoordinates,Original*%
%TF.FileFunction,Copper,L2,Bot*%
%TF.FilePolarity,Positive*%
%FSLAX46Y46*%
G04 Gerber Fmt 4.6, Leading zero omitted, Abs format (unit mm)*
G04 Created by KiCad (PCBNEW 6.0.5-2.fc36) date 2022-06-19 11:45:17*
%MOMM*%
%LPD*%
G01*
G04 APERTURE LIST*
%ADD10C,0.100000*%
%ADD11C,0.150000*%
%ADD12C,0.300000*%
%ADD13C,0.400000*%
%TA.AperFunction,Profile*%
%ADD14C,0.100000*%
%TD*%
%TA.AperFunction,SMDPad,CuDef*%
%ADD15R,2.200000X1.350000*%
%TD*%
%TA.AperFunction,ViaPad*%
%ADD16C,0.400000*%
%TD*%
%TA.AperFunction,ViaPad*%
%ADD17C,0.200000*%
%TD*%
%TA.AperFunction,ViaPad*%
%ADD18C,1.000000*%
%TD*%
%TA.AperFunction,ViaPad*%
%ADD19C,0.800000*%
%TD*%
%TA.AperFunction,ViaPad*%
%ADD20C,0.500000*%
%TD*%
%TA.AperFunction,Conductor*%
%ADD21C,0.600000*%
%TD*%
%TA.AperFunction,Conductor*%
%ADD22C,0.200000*%
%TD*%
%TA.AperFunction,Conductor*%
%ADD23C,1.000000*%
%TD*%
G04 APERTURE END LIST*
D10*
D11*
X90007200Y-104005800D02*
X90007200Y-136005800D01*
X198007200Y-136005800D01*
X198007200Y-104005800D01*
X90007200Y-104005800D01*
D10*
D11*
X10000000Y-10000000D02*
X10000000Y-138005800D01*
X200007200Y-138005800D01*
X200007200Y-10000000D01*
X10000000Y-10000000D01*
D10*
D11*
X12000000Y-12000000D02*
X12000000Y-136005800D01*
X198007200Y-136005800D01*
X198007200Y-12000000D01*
X12000000Y-12000000D01*
D10*
D11*
X60000000Y-12000000D02*
X60000000Y-10000000D01*
D10*
D11*
X110000000Y-12000000D02*
X110000000Y-10000000D01*
D10*
D11*
X160000000Y-12000000D02*
X160000000Y-10000000D01*
D10*
D11*
X36065476Y-11588095D02*
X35322619Y-11588095D01*
X35694047Y-11588095D02*
X35694047Y-10288095D01*
X35570238Y-10473809D01*
X35446428Y-10597619D01*
X35322619Y-10659523D01*
D10*
D11*
X85322619Y-10411904D02*
X85384523Y-10350000D01*
X85508333Y-10288095D01*
X85817857Y-10288095D01*
X85941666Y-10350000D01*
X86003571Y-10411904D01*
X86065476Y-10535714D01*
X86065476Y-10659523D01*
X86003571Y-10845238D01*
X85260714Y-11588095D01*
X86065476Y-11588095D01*
D10*
D11*
X135260714Y-10288095D02*
X136065476Y-10288095D01*
X135632142Y-10783333D01*
X135817857Y-10783333D01*
X135941666Y-10845238D01*
X136003571Y-10907142D01*
X136065476Y-11030952D01*
X136065476Y-11340476D01*
X136003571Y-11464285D01*
X135941666Y-11526190D01*
X135817857Y-11588095D01*
X135446428Y-11588095D01*
X135322619Y-11526190D01*
X135260714Y-11464285D01*
D10*
D11*
X185941666Y-10721428D02*
X185941666Y-11588095D01*
X185632142Y-10226190D02*
X185322619Y-11154761D01*
X186127380Y-11154761D01*
D10*
D11*
X60000000Y-136005800D02*
X60000000Y-138005800D01*
D10*
D11*
X110000000Y-136005800D02*
X110000000Y-138005800D01*
D10*
D11*
X160000000Y-136005800D02*
X160000000Y-138005800D01*
D10*
D11*
X36065476Y-137593895D02*
X35322619Y-137593895D01*
X35694047Y-137593895D02*
X35694047Y-136293895D01*
X35570238Y-136479609D01*
X35446428Y-136603419D01*
X35322619Y-136665323D01*
D10*
D11*
X85322619Y-136417704D02*
X85384523Y-136355800D01*
X85508333Y-136293895D01*
X85817857Y-136293895D01*
X85941666Y-136355800D01*
X86003571Y-136417704D01*
X86065476Y-136541514D01*
X86065476Y-136665323D01*
X86003571Y-136851038D01*
X85260714Y-137593895D01*
X86065476Y-137593895D01*
D10*
D11*
X135260714Y-136293895D02*
X136065476Y-136293895D01*
X135632142Y-136789133D01*
X135817857Y-136789133D01*
X135941666Y-136851038D01*
X136003571Y-136912942D01*
X136065476Y-137036752D01*
X136065476Y-137346276D01*
X136003571Y-137470085D01*
X135941666Y-137531990D01*
X135817857Y-137593895D01*
X135446428Y-137593895D01*
X135322619Y-137531990D01*
X135260714Y-137470085D01*
D10*
D11*
X185941666Y-136727228D02*
X185941666Y-137593895D01*
X185632142Y-136231990D02*
X185322619Y-137160561D01*
X186127380Y-137160561D01*
D10*
D11*
X10000000Y-60000000D02*
X12000000Y-60000000D01*
D10*
D11*
X10000000Y-110000000D02*
X12000000Y-110000000D01*
D10*
D11*
X10690476Y-35216666D02*
X11309523Y-35216666D01*
X10566666Y-35588095D02*
X11000000Y-34288095D01*
X11433333Y-35588095D01*
D10*
D11*
X11092857Y-84907142D02*
X11278571Y-84969047D01*
X11340476Y-85030952D01*
X11402380Y-85154761D01*
X11402380Y-85340476D01*
X11340476Y-85464285D01*
X11278571Y-85526190D01*
X11154761Y-85588095D01*
X10659523Y-85588095D01*
X10659523Y-84288095D01*
X11092857Y-84288095D01*
X11216666Y-84350000D01*
X11278571Y-84411904D01*
X11340476Y-84535714D01*
X11340476Y-84659523D01*
X11278571Y-84783333D01*
X11216666Y-84845238D01*
X11092857Y-84907142D01*
X10659523Y-84907142D01*
D10*
D11*
X11402380Y-135464285D02*
X11340476Y-135526190D01*
X11154761Y-135588095D01*
X11030952Y-135588095D01*
X10845238Y-135526190D01*
X10721428Y-135402380D01*
X10659523Y-135278571D01*
X10597619Y-135030952D01*
X10597619Y-134845238D01*
X10659523Y-134597619D01*
X10721428Y-134473809D01*
X10845238Y-134350000D01*
X11030952Y-134288095D01*
X11154761Y-134288095D01*
X11340476Y-134350000D01*
X11402380Y-134411904D01*
D10*
D11*
X200007200Y-60000000D02*
X198007200Y-60000000D01*
D10*
D11*
X200007200Y-110000000D02*
X198007200Y-110000000D01*
D10*
D11*
X198697676Y-35216666D02*
X199316723Y-35216666D01*
X198573866Y-35588095D02*
X199007200Y-34288095D01*
X199440533Y-35588095D01*
D10*
D11*
X199100057Y-84907142D02*
X199285771Y-84969047D01*
X199347676Y-85030952D01*
X199409580Y-85154761D01*
X199409580Y-85340476D01*
X199347676Y-85464285D01*
X199285771Y-85526190D01*
X199161961Y-85588095D01*
X198666723Y-85588095D01*
X198666723Y-84288095D01*
X199100057Y-84288095D01*
X199223866Y-84350000D01*
X199285771Y-84411904D01*
X199347676Y-84535714D01*
X199347676Y-84659523D01*
X199285771Y-84783333D01*
X199223866Y-84845238D01*
X199100057Y-84907142D01*
X198666723Y-84907142D01*
D10*
D11*
X199409580Y-135464285D02*
X199347676Y-135526190D01*
X199161961Y-135588095D01*
X199038152Y-135588095D01*
X198852438Y-135526190D01*
X198728628Y-135402380D01*
X198666723Y-135278571D01*
X198604819Y-135030952D01*
X198604819Y-134845238D01*
X198666723Y-134597619D01*
X198728628Y-134473809D01*
X198852438Y-134350000D01*
X199038152Y-134288095D01*
X199161961Y-134288095D01*
X199347676Y-134350000D01*
X199409580Y-134411904D01*
D10*
D11*
X113439342Y-131784371D02*
X113439342Y-130284371D01*
X113796485Y-130284371D01*
X114010771Y-130355800D01*
X114153628Y-130498657D01*
X114225057Y-130641514D01*
X114296485Y-130927228D01*
X114296485Y-131141514D01*
X114225057Y-131427228D01*
X114153628Y-131570085D01*
X114010771Y-131712942D01*
X113796485Y-131784371D01*
X113439342Y-131784371D01*
X115582200Y-131784371D02*
X115582200Y-130998657D01*
X115510771Y-130855800D01*
X115367914Y-130784371D01*
X115082200Y-130784371D01*
X114939342Y-130855800D01*
X115582200Y-131712942D02*
X115439342Y-131784371D01*
X115082200Y-131784371D01*
X114939342Y-131712942D01*
X114867914Y-131570085D01*
X114867914Y-131427228D01*
X114939342Y-131284371D01*
X115082200Y-131212942D01*
X115439342Y-131212942D01*
X115582200Y-131141514D01*
X116082200Y-130784371D02*
X116653628Y-130784371D01*
X116296485Y-130284371D02*
X116296485Y-131570085D01*
X116367914Y-131712942D01*
X116510771Y-131784371D01*
X116653628Y-131784371D01*
X117725057Y-131712942D02*
X117582200Y-131784371D01*
X117296485Y-131784371D01*
X117153628Y-131712942D01*
X117082200Y-131570085D01*
X117082200Y-130998657D01*
X117153628Y-130855800D01*
X117296485Y-130784371D01*
X117582200Y-130784371D01*
X117725057Y-130855800D01*
X117796485Y-130998657D01*
X117796485Y-131141514D01*
X117082200Y-131284371D01*
X118439342Y-131641514D02*
X118510771Y-131712942D01*
X118439342Y-131784371D01*
X118367914Y-131712942D01*
X118439342Y-131641514D01*
X118439342Y-131784371D01*
X118439342Y-130855800D02*
X118510771Y-130927228D01*
X118439342Y-130998657D01*
X118367914Y-130927228D01*
X118439342Y-130855800D01*
X118439342Y-130998657D01*
D10*
D11*
X90007200Y-132505800D02*
X198007200Y-132505800D01*
D10*
D11*
X91439342Y-134584371D02*
X91439342Y-133084371D01*
X92296485Y-134584371D02*
X91653628Y-133727228D01*
X92296485Y-133084371D02*
X91439342Y-133941514D01*
X92939342Y-134584371D02*
X92939342Y-133584371D01*
X92939342Y-133084371D02*
X92867914Y-133155800D01*
X92939342Y-133227228D01*
X93010771Y-133155800D01*
X92939342Y-133084371D01*
X92939342Y-133227228D01*
X94510771Y-134441514D02*
X94439342Y-134512942D01*
X94225057Y-134584371D01*
X94082200Y-134584371D01*
X93867914Y-134512942D01*
X93725057Y-134370085D01*
X93653628Y-134227228D01*
X93582200Y-133941514D01*
X93582200Y-133727228D01*
X93653628Y-133441514D01*
X93725057Y-133298657D01*
X93867914Y-133155800D01*
X94082200Y-133084371D01*
X94225057Y-133084371D01*
X94439342Y-133155800D01*
X94510771Y-133227228D01*
X95796485Y-134584371D02*
X95796485Y-133798657D01*
X95725057Y-133655800D01*
X95582200Y-133584371D01*
X95296485Y-133584371D01*
X95153628Y-133655800D01*
X95796485Y-134512942D02*
X95653628Y-134584371D01*
X95296485Y-134584371D01*
X95153628Y-134512942D01*
X95082200Y-134370085D01*
X95082200Y-134227228D01*
X95153628Y-134084371D01*
X95296485Y-134012942D01*
X95653628Y-134012942D01*
X95796485Y-133941514D01*
X97153628Y-134584371D02*
X97153628Y-133084371D01*
X97153628Y-134512942D02*
X97010771Y-134584371D01*
X96725057Y-134584371D01*
X96582200Y-134512942D01*
X96510771Y-134441514D01*
X96439342Y-134298657D01*
X96439342Y-133870085D01*
X96510771Y-133727228D01*
X96582200Y-133655800D01*
X96725057Y-133584371D01*
X97010771Y-133584371D01*
X97153628Y-133655800D01*
X99010771Y-133798657D02*
X99510771Y-133798657D01*
X99725057Y-134584371D02*
X99010771Y-134584371D01*
X99010771Y-133084371D01*
X99725057Y-133084371D01*
X100367914Y-134441514D02*
X100439342Y-134512942D01*
X100367914Y-134584371D01*
X100296485Y-134512942D01*
X100367914Y-134441514D01*
X100367914Y-134584371D01*
X101082200Y-134584371D02*
X101082200Y-133084371D01*
X101439342Y-133084371D01*
X101653628Y-133155800D01*
X101796485Y-133298657D01*
X101867914Y-133441514D01*
X101939342Y-133727228D01*
X101939342Y-133941514D01*
X101867914Y-134227228D01*
X101796485Y-134370085D01*
X101653628Y-134512942D01*
X101439342Y-134584371D01*
X101082200Y-134584371D01*
X102582200Y-134441514D02*
X102653628Y-134512942D01*
X102582200Y-134584371D01*
X102510771Y-134512942D01*
X102582200Y-134441514D01*
X102582200Y-134584371D01*
X103225057Y-134155800D02*
X103939342Y-134155800D01*
X103082200Y-134584371D02*
X103582200Y-133084371D01*
X104082200Y-134584371D01*
X104582200Y-134441514D02*
X104653628Y-134512942D01*
X104582200Y-134584371D01*
X104510771Y-134512942D01*
X104582200Y-134441514D01*
X104582200Y-134584371D01*
X107582200Y-134584371D02*
X107582200Y-133084371D01*
X107725057Y-134012942D02*
X108153628Y-134584371D01*
X108153628Y-133584371D02*
X107582200Y-134155800D01*
X108796485Y-134584371D02*
X108796485Y-133584371D01*
X108796485Y-133084371D02*
X108725057Y-133155800D01*
X108796485Y-133227228D01*
X108867914Y-133155800D01*
X108796485Y-133084371D01*
X108796485Y-133227228D01*
X110153628Y-134512942D02*
X110010771Y-134584371D01*
X109725057Y-134584371D01*
X109582200Y-134512942D01*
X109510771Y-134441514D01*
X109439342Y-134298657D01*
X109439342Y-133870085D01*
X109510771Y-133727228D01*
X109582200Y-133655800D01*
X109725057Y-133584371D01*
X110010771Y-133584371D01*
X110153628Y-133655800D01*
X111439342Y-134584371D02*
X111439342Y-133798657D01*
X111367914Y-133655800D01*
X111225057Y-133584371D01*
X110939342Y-133584371D01*
X110796485Y-133655800D01*
X111439342Y-134512942D02*
X111296485Y-134584371D01*
X110939342Y-134584371D01*
X110796485Y-134512942D01*
X110725057Y-134370085D01*
X110725057Y-134227228D01*
X110796485Y-134084371D01*
X110939342Y-134012942D01*
X111296485Y-134012942D01*
X111439342Y-133941514D01*
X112796485Y-134584371D02*
X112796485Y-133084371D01*
X112796485Y-134512942D02*
X112653628Y-134584371D01*
X112367914Y-134584371D01*
X112225057Y-134512942D01*
X112153628Y-134441514D01*
X112082200Y-134298657D01*
X112082200Y-133870085D01*
X112153628Y-133727228D01*
X112225057Y-133655800D01*
X112367914Y-133584371D01*
X112653628Y-133584371D01*
X112796485Y-133655800D01*
X115296485Y-133084371D02*
X115010771Y-133084371D01*
X114867914Y-133155800D01*
X114796485Y-133227228D01*
X114653628Y-133441514D01*
X114582200Y-133727228D01*
X114582200Y-134298657D01*
X114653628Y-134441514D01*
X114725057Y-134512942D01*
X114867914Y-134584371D01*
X115153628Y-134584371D01*
X115296485Y-134512942D01*
X115367914Y-134441514D01*
X115439342Y-134298657D01*
X115439342Y-133941514D01*
X115367914Y-133798657D01*
X115296485Y-133727228D01*
X115153628Y-133655800D01*
X114867914Y-133655800D01*
X114725057Y-133727228D01*
X114653628Y-133798657D01*
X114582200Y-133941514D01*
X116082200Y-134441514D02*
X116153628Y-134512942D01*
X116082200Y-134584371D01*
X116010771Y-134512942D01*
X116082200Y-134441514D01*
X116082200Y-134584371D01*
X117082200Y-133084371D02*
X117225057Y-133084371D01*
X117367914Y-133155800D01*
X117439342Y-133227228D01*
X117510771Y-133370085D01*
X117582200Y-133655800D01*
X117582200Y-134012942D01*
X117510771Y-134298657D01*
X117439342Y-134441514D01*
X117367914Y-134512942D01*
X117225057Y-134584371D01*
X117082200Y-134584371D01*
X116939342Y-134512942D01*
X116867914Y-134441514D01*
X116796485Y-134298657D01*
X116725057Y-134012942D01*
X116725057Y-133655800D01*
X116796485Y-133370085D01*
X116867914Y-133227228D01*
X116939342Y-133155800D01*
X117082200Y-133084371D01*
X118225057Y-134441514D02*
X118296485Y-134512942D01*
X118225057Y-134584371D01*
X118153628Y-134512942D01*
X118225057Y-134441514D01*
X118225057Y-134584371D01*
X119653628Y-133084371D02*
X118939342Y-133084371D01*
X118867914Y-133798657D01*
X118939342Y-133727228D01*
X119082200Y-133655800D01*
X119439342Y-133655800D01*
X119582200Y-133727228D01*
X119653628Y-133798657D01*
X119725057Y-133941514D01*
X119725057Y-134298657D01*
X119653628Y-134441514D01*
X119582200Y-134512942D01*
X119439342Y-134584371D01*
X119082200Y-134584371D01*
X118939342Y-134512942D01*
X118867914Y-134441514D01*
X120367914Y-134012942D02*
X121510771Y-134012942D01*
X122153628Y-133227228D02*
X122225057Y-133155800D01*
X122367914Y-133084371D01*
X122725057Y-133084371D01*
X122867914Y-133155800D01*
X122939342Y-133227228D01*
X123010771Y-133370085D01*
X123010771Y-133512942D01*
X122939342Y-133727228D01*
X122082200Y-134584371D01*
X123010771Y-134584371D01*
X123653628Y-134441514D02*
X123725057Y-134512942D01*
X123653628Y-134584371D01*
X123582200Y-134512942D01*
X123653628Y-134441514D01*
X123653628Y-134584371D01*
X124153628Y-133584371D02*
X124725057Y-133584371D01*
X124367914Y-134584371D02*
X124367914Y-133298657D01*
X124439342Y-133155800D01*
X124582200Y-133084371D01*
X124725057Y-133084371D01*
X125867914Y-134512942D02*
X125725057Y-134584371D01*
X125439342Y-134584371D01*
X125296485Y-134512942D01*
X125225057Y-134441514D01*
X125153628Y-134298657D01*
X125153628Y-133870085D01*
X125225057Y-133727228D01*
X125296485Y-133655800D01*
X125439342Y-133584371D01*
X125725057Y-133584371D01*
X125867914Y-133655800D01*
X126367914Y-133084371D02*
X127296485Y-133084371D01*
X126796485Y-133655800D01*
X127010771Y-133655800D01*
X127153628Y-133727228D01*
X127225057Y-133798657D01*
X127296485Y-133941514D01*
X127296485Y-134298657D01*
X127225057Y-134441514D01*
X127153628Y-134512942D01*
X127010771Y-134584371D01*
X126582200Y-134584371D01*
X126439342Y-134512942D01*
X126367914Y-134441514D01*
X128582200Y-133084371D02*
X128296485Y-133084371D01*
X128153628Y-133155800D01*
X128082200Y-133227228D01*
X127939342Y-133441514D01*
X127867914Y-133727228D01*
X127867914Y-134298657D01*
X127939342Y-134441514D01*
X128010771Y-134512942D01*
X128153628Y-134584371D01*
X128439342Y-134584371D01*
X128582200Y-134512942D01*
X128653628Y-134441514D01*
X128725057Y-134298657D01*
X128725057Y-133941514D01*
X128653628Y-133798657D01*
X128582200Y-133727228D01*
X128439342Y-133655800D01*
X128153628Y-133655800D01*
X128010771Y-133727228D01*
X127939342Y-133798657D01*
X127867914Y-133941514D01*
D10*
D11*
X90007200Y-129505800D02*
X198007200Y-129505800D01*
D10*
D12*
X177416485Y-131784371D02*
X176916485Y-131070085D01*
X176559342Y-131784371D02*
X176559342Y-130284371D01*
X177130771Y-130284371D01*
X177273628Y-130355800D01*
X177345057Y-130427228D01*
X177416485Y-130570085D01*
X177416485Y-130784371D01*
X177345057Y-130927228D01*
X177273628Y-130998657D01*
X177130771Y-131070085D01*
X176559342Y-131070085D01*
X178630771Y-131712942D02*
X178487914Y-131784371D01*
X178202200Y-131784371D01*
X178059342Y-131712942D01*
X177987914Y-131570085D01*
X177987914Y-130998657D01*
X178059342Y-130855800D01*
X178202200Y-130784371D01*
X178487914Y-130784371D01*
X178630771Y-130855800D01*
X178702200Y-130998657D01*
X178702200Y-131141514D01*
X177987914Y-131284371D01*
X179202200Y-130784371D02*
X179559342Y-131784371D01*
X179916485Y-130784371D01*
X180487914Y-131641514D02*
X180559342Y-131712942D01*
X180487914Y-131784371D01*
X180416485Y-131712942D01*
X180487914Y-131641514D01*
X180487914Y-131784371D01*
X180487914Y-130855800D02*
X180559342Y-130927228D01*
X180487914Y-130998657D01*
X180416485Y-130927228D01*
X180487914Y-130855800D01*
X180487914Y-130998657D01*
D10*
D11*
X91367914Y-131712942D02*
X91582200Y-131784371D01*
X91939342Y-131784371D01*
X92082200Y-131712942D01*
X92153628Y-131641514D01*
X92225057Y-131498657D01*
X92225057Y-131355800D01*
X92153628Y-131212942D01*
X92082200Y-131141514D01*
X91939342Y-131070085D01*
X91653628Y-130998657D01*
X91510771Y-130927228D01*
X91439342Y-130855800D01*
X91367914Y-130712942D01*
X91367914Y-130570085D01*
X91439342Y-130427228D01*
X91510771Y-130355800D01*
X91653628Y-130284371D01*
X92010771Y-130284371D01*
X92225057Y-130355800D01*
X92867914Y-131784371D02*
X92867914Y-130784371D01*
X92867914Y-130284371D02*
X92796485Y-130355800D01*
X92867914Y-130427228D01*
X92939342Y-130355800D01*
X92867914Y-130284371D01*
X92867914Y-130427228D01*
X93439342Y-130784371D02*
X94225057Y-130784371D01*
X93439342Y-131784371D01*
X94225057Y-131784371D01*
X95367914Y-131712942D02*
X95225057Y-131784371D01*
X94939342Y-131784371D01*
X94796485Y-131712942D01*
X94725057Y-131570085D01*
X94725057Y-130998657D01*
X94796485Y-130855800D01*
X94939342Y-130784371D01*
X95225057Y-130784371D01*
X95367914Y-130855800D01*
X95439342Y-130998657D01*
X95439342Y-131141514D01*
X94725057Y-131284371D01*
X96082200Y-131641514D02*
X96153628Y-131712942D01*
X96082200Y-131784371D01*
X96010771Y-131712942D01*
X96082200Y-131641514D01*
X96082200Y-131784371D01*
X96082200Y-130855800D02*
X96153628Y-130927228D01*
X96082200Y-130998657D01*
X96010771Y-130927228D01*
X96082200Y-130855800D01*
X96082200Y-130998657D01*
X97867914Y-131355800D02*
X98582200Y-131355800D01*
X97725057Y-131784371D02*
X98225057Y-130284371D01*
X98725057Y-131784371D01*
X99939342Y-130284371D02*
X99225057Y-130284371D01*
X99153628Y-130998657D01*
X99225057Y-130927228D01*
X99367914Y-130855800D01*
X99725057Y-130855800D01*
X99867914Y-130927228D01*
X99939342Y-130998657D01*
X100010771Y-131141514D01*
X100010771Y-131498657D01*
X99939342Y-131641514D01*
X99867914Y-131712942D01*
X99725057Y-131784371D01*
X99367914Y-131784371D01*
X99225057Y-131712942D01*
X99153628Y-131641514D01*
D10*
D11*
X176439342Y-134584371D02*
X176439342Y-133084371D01*
X177796485Y-134584371D02*
X177796485Y-133084371D01*
X177796485Y-134512942D02*
X177653628Y-134584371D01*
X177367914Y-134584371D01*
X177225057Y-134512942D01*
X177153628Y-134441514D01*
X177082200Y-134298657D01*
X177082200Y-133870085D01*
X177153628Y-133727228D01*
X177225057Y-133655800D01*
X177367914Y-133584371D01*
X177653628Y-133584371D01*
X177796485Y-133655800D01*
X178510771Y-134441514D02*
X178582200Y-134512942D01*
X178510771Y-134584371D01*
X178439342Y-134512942D01*
X178510771Y-134441514D01*
X178510771Y-134584371D01*
X178510771Y-133655800D02*
X178582200Y-133727228D01*
X178510771Y-133798657D01*
X178439342Y-133727228D01*
X178510771Y-133655800D01*
X178510771Y-133798657D01*
X181153628Y-134584371D02*
X180296485Y-134584371D01*
X180725057Y-134584371D02*
X180725057Y-133084371D01*
X180582200Y-133298657D01*
X180439342Y-133441514D01*
X180296485Y-133512942D01*
X182867914Y-133012942D02*
X181582200Y-134941514D01*
X184153628Y-134584371D02*
X183296485Y-134584371D01*
X183725057Y-134584371D02*
X183725057Y-133084371D01*
X183582200Y-133298657D01*
X183439342Y-133441514D01*
X183296485Y-133512942D01*
D10*
D11*
X90007200Y-125505800D02*
X198007200Y-125505800D01*
D10*
D13*
X91719580Y-126210561D02*
X92862438Y-126210561D01*
X92041009Y-128210561D02*
X92291009Y-126210561D01*
X93279104Y-128210561D02*
X93445771Y-126877228D01*
X93529104Y-126210561D02*
X93421961Y-126305800D01*
X93505295Y-126401038D01*
X93612438Y-126305800D01*
X93529104Y-126210561D01*
X93505295Y-126401038D01*
X94112438Y-126877228D02*
X94874342Y-126877228D01*
X94481485Y-126210561D02*
X94267200Y-127924847D01*
X94338628Y-128115323D01*
X94517200Y-128210561D01*
X94707676Y-128210561D01*
X95660057Y-128210561D02*
X95481485Y-128115323D01*
X95410057Y-127924847D01*
X95624342Y-126210561D01*
X97195771Y-128115323D02*
X96993390Y-128210561D01*
X96612438Y-128210561D01*
X96433866Y-128115323D01*
X96362438Y-127924847D01*
X96457676Y-127162942D01*
X96576723Y-126972466D01*
X96779104Y-126877228D01*
X97160057Y-126877228D01*
X97338628Y-126972466D01*
X97410057Y-127162942D01*
X97386247Y-127353419D01*
X96410057Y-127543895D01*
X98160057Y-128020085D02*
X98243390Y-128115323D01*
X98136247Y-128210561D01*
X98052914Y-128115323D01*
X98160057Y-128020085D01*
X98136247Y-128210561D01*
X98291009Y-126972466D02*
X98374342Y-127067704D01*
X98267200Y-127162942D01*
X98183866Y-127067704D01*
X98291009Y-126972466D01*
X98267200Y-127162942D01*
D10*
D11*
X91939342Y-123598657D02*
X91439342Y-123598657D01*
X91439342Y-124384371D02*
X91439342Y-122884371D01*
X92153628Y-122884371D01*
X92725057Y-124384371D02*
X92725057Y-123384371D01*
X92725057Y-122884371D02*
X92653628Y-122955800D01*
X92725057Y-123027228D01*
X92796485Y-122955800D01*
X92725057Y-122884371D01*
X92725057Y-123027228D01*
X93653628Y-124384371D02*
X93510771Y-124312942D01*
X93439342Y-124170085D01*
X93439342Y-122884371D01*
X94796485Y-124312942D02*
X94653628Y-124384371D01*
X94367914Y-124384371D01*
X94225057Y-124312942D01*
X94153628Y-124170085D01*
X94153628Y-123598657D01*
X94225057Y-123455800D01*
X94367914Y-123384371D01*
X94653628Y-123384371D01*
X94796485Y-123455800D01*
X94867914Y-123598657D01*
X94867914Y-123741514D01*
X94153628Y-123884371D01*
X95510771Y-124241514D02*
X95582200Y-124312942D01*
X95510771Y-124384371D01*
X95439342Y-124312942D01*
X95510771Y-124241514D01*
X95510771Y-124384371D01*
X95510771Y-123455800D02*
X95582200Y-123527228D01*
X95510771Y-123598657D01*
X95439342Y-123527228D01*
X95510771Y-123455800D01*
X95510771Y-123598657D01*
X97296485Y-124312942D02*
X97439342Y-124384371D01*
X97725057Y-124384371D01*
X97867914Y-124312942D01*
X97939342Y-124170085D01*
X97939342Y-124098657D01*
X97867914Y-123955800D01*
X97725057Y-123884371D01*
X97510771Y-123884371D01*
X97367914Y-123812942D01*
X97296485Y-123670085D01*
X97296485Y-123598657D01*
X97367914Y-123455800D01*
X97510771Y-123384371D01*
X97725057Y-123384371D01*
X97867914Y-123455800D01*
X98796485Y-124384371D02*
X98653628Y-124312942D01*
X98582200Y-124241514D01*
X98510771Y-124098657D01*
X98510771Y-123670085D01*
X98582200Y-123527228D01*
X98653628Y-123455800D01*
X98796485Y-123384371D01*
X99010771Y-123384371D01*
X99153628Y-123455800D01*
X99225057Y-123527228D01*
X99296485Y-123670085D01*
X99296485Y-124098657D01*
X99225057Y-124241514D01*
X99153628Y-124312942D01*
X99010771Y-124384371D01*
X98796485Y-124384371D01*
X100582200Y-123384371D02*
X100582200Y-124384371D01*
X99939342Y-123384371D02*
X99939342Y-124170085D01*
X100010771Y-124312942D01*
X100153628Y-124384371D01*
X100367914Y-124384371D01*
X100510771Y-124312942D01*
X100582200Y-124241514D01*
X101296485Y-124384371D02*
X101296485Y-123384371D01*
X101296485Y-123670085D02*
X101367914Y-123527228D01*
X101439342Y-123455800D01*
X101582200Y-123384371D01*
X101725057Y-123384371D01*
X102867914Y-124312942D02*
X102725057Y-124384371D01*
X102439342Y-124384371D01*
X102296485Y-124312942D01*
X102225057Y-124241514D01*
X102153628Y-124098657D01*
X102153628Y-123670085D01*
X102225057Y-123527228D01*
X102296485Y-123455800D01*
X102439342Y-123384371D01*
X102725057Y-123384371D01*
X102867914Y-123455800D01*
X104082200Y-124312942D02*
X103939342Y-124384371D01*
X103653628Y-124384371D01*
X103510771Y-124312942D01*
X103439342Y-124170085D01*
X103439342Y-123598657D01*
X103510771Y-123455800D01*
X103653628Y-123384371D01*
X103939342Y-123384371D01*
X104082200Y-123455800D01*
X104153628Y-123598657D01*
X104153628Y-123741514D01*
X103439342Y-123884371D01*
X106582200Y-124384371D02*
X106582200Y-123598657D01*
X106510771Y-123455800D01*
X106367914Y-123384371D01*
X106082200Y-123384371D01*
X105939342Y-123455800D01*
X106582200Y-124312942D02*
X106439342Y-124384371D01*
X106082200Y-124384371D01*
X105939342Y-124312942D01*
X105867914Y-124170085D01*
X105867914Y-124027228D01*
X105939342Y-123884371D01*
X106082200Y-123812942D01*
X106439342Y-123812942D01*
X106582200Y-123741514D01*
X107939342Y-123384371D02*
X107939342Y-124384371D01*
X107296485Y-123384371D02*
X107296485Y-124170085D01*
X107367914Y-124312942D01*
X107510771Y-124384371D01*
X107725057Y-124384371D01*
X107867914Y-124312942D01*
X107939342Y-124241514D01*
X108439342Y-123384371D02*
X109010771Y-123384371D01*
X108653628Y-122884371D02*
X108653628Y-124170085D01*
X108725057Y-124312942D01*
X108867914Y-124384371D01*
X109010771Y-124384371D01*
X109725057Y-124384371D02*
X109582200Y-124312942D01*
X109510771Y-124241514D01*
X109439342Y-124098657D01*
X109439342Y-123670085D01*
X109510771Y-123527228D01*
X109582200Y-123455800D01*
X109725057Y-123384371D01*
X109939342Y-123384371D01*
X110082200Y-123455800D01*
X110153628Y-123527228D01*
X110225057Y-123670085D01*
X110225057Y-124098657D01*
X110153628Y-124241514D01*
X110082200Y-124312942D01*
X109939342Y-124384371D01*
X109725057Y-124384371D01*
X112653628Y-124312942D02*
X112510771Y-124384371D01*
X112225057Y-124384371D01*
X112082200Y-124312942D01*
X112010771Y-124241514D01*
X111939342Y-124098657D01*
X111939342Y-123670085D01*
X112010771Y-123527228D01*
X112082200Y-123455800D01*
X112225057Y-123384371D01*
X112510771Y-123384371D01*
X112653628Y-123455800D01*
X113296485Y-124384371D02*
X113296485Y-122884371D01*
X113939342Y-124384371D02*
X113939342Y-123598657D01*
X113867914Y-123455800D01*
X113725057Y-123384371D01*
X113510771Y-123384371D01*
X113367914Y-123455800D01*
X113296485Y-123527228D01*
X115296485Y-124384371D02*
X115296485Y-123598657D01*
X115225057Y-123455800D01*
X115082200Y-123384371D01*
X114796485Y-123384371D01*
X114653628Y-123455800D01*
X115296485Y-124312942D02*
X115153628Y-124384371D01*
X114796485Y-124384371D01*
X114653628Y-124312942D01*
X114582200Y-124170085D01*
X114582200Y-124027228D01*
X114653628Y-123884371D01*
X114796485Y-123812942D01*
X115153628Y-123812942D01*
X115296485Y-123741514D01*
X116010771Y-123384371D02*
X116010771Y-124384371D01*
X116010771Y-123527228D02*
X116082200Y-123455800D01*
X116225057Y-123384371D01*
X116439342Y-123384371D01*
X116582200Y-123455800D01*
X116653628Y-123598657D01*
X116653628Y-124384371D01*
X118010771Y-123384371D02*
X118010771Y-124598657D01*
X117939342Y-124741514D01*
X117867914Y-124812942D01*
X117725057Y-124884371D01*
X117510771Y-124884371D01*
X117367914Y-124812942D01*
X118010771Y-124312942D02*
X117867914Y-124384371D01*
X117582200Y-124384371D01*
X117439342Y-124312942D01*
X117367914Y-124241514D01*
X117296485Y-124098657D01*
X117296485Y-123670085D01*
X117367914Y-123527228D01*
X117439342Y-123455800D01*
X117582200Y-123384371D01*
X117867914Y-123384371D01*
X118010771Y-123455800D01*
X119296485Y-124312942D02*
X119153628Y-124384371D01*
X118867914Y-124384371D01*
X118725057Y-124312942D01*
X118653628Y-124170085D01*
X118653628Y-123598657D01*
X118725057Y-123455800D01*
X118867914Y-123384371D01*
X119153628Y-123384371D01*
X119296485Y-123455800D01*
X119367914Y-123598657D01*
X119367914Y-123741514D01*
X118653628Y-123884371D01*
X120010771Y-124241514D02*
X120082200Y-124312942D01*
X120010771Y-124384371D01*
X119939342Y-124312942D01*
X120010771Y-124241514D01*
X120010771Y-124384371D01*
X120725057Y-124384371D02*
X120725057Y-122884371D01*
X120867914Y-123812942D02*
X121296485Y-124384371D01*
X121296485Y-123384371D02*
X120725057Y-123955800D01*
X121939342Y-124384371D02*
X121939342Y-123384371D01*
X121939342Y-122884371D02*
X121867914Y-122955800D01*
X121939342Y-123027228D01*
X122010771Y-122955800D01*
X121939342Y-122884371D01*
X121939342Y-123027228D01*
X123296485Y-124312942D02*
X123153628Y-124384371D01*
X122867914Y-124384371D01*
X122725057Y-124312942D01*
X122653628Y-124241514D01*
X122582200Y-124098657D01*
X122582200Y-123670085D01*
X122653628Y-123527228D01*
X122725057Y-123455800D01*
X122867914Y-123384371D01*
X123153628Y-123384371D01*
X123296485Y-123455800D01*
X124582200Y-124384371D02*
X124582200Y-123598657D01*
X124510771Y-123455800D01*
X124367914Y-123384371D01*
X124082200Y-123384371D01*
X123939342Y-123455800D01*
X124582200Y-124312942D02*
X124439342Y-124384371D01*
X124082200Y-124384371D01*
X123939342Y-124312942D01*
X123867914Y-124170085D01*
X123867914Y-124027228D01*
X123939342Y-123884371D01*
X124082200Y-123812942D01*
X124439342Y-123812942D01*
X124582200Y-123741514D01*
X125939342Y-124384371D02*
X125939342Y-122884371D01*
X125939342Y-124312942D02*
X125796485Y-124384371D01*
X125510771Y-124384371D01*
X125367914Y-124312942D01*
X125296485Y-124241514D01*
X125225057Y-124098657D01*
X125225057Y-123670085D01*
X125296485Y-123527228D01*
X125367914Y-123455800D01*
X125510771Y-123384371D01*
X125796485Y-123384371D01*
X125939342Y-123455800D01*
X126296485Y-124527228D02*
X127439342Y-124527228D01*
X127796485Y-123384371D02*
X127796485Y-124884371D01*
X127796485Y-123455800D02*
X127939342Y-123384371D01*
X128225057Y-123384371D01*
X128367914Y-123455800D01*
X128439342Y-123527228D01*
X128510771Y-123670085D01*
X128510771Y-124098657D01*
X128439342Y-124241514D01*
X128367914Y-124312942D01*
X128225057Y-124384371D01*
X127939342Y-124384371D01*
X127796485Y-124312942D01*
X129796485Y-124312942D02*
X129653628Y-124384371D01*
X129367914Y-124384371D01*
X129225057Y-124312942D01*
X129153628Y-124241514D01*
X129082200Y-124098657D01*
X129082200Y-123670085D01*
X129153628Y-123527228D01*
X129225057Y-123455800D01*
X129367914Y-123384371D01*
X129653628Y-123384371D01*
X129796485Y-123455800D01*
X130439342Y-124384371D02*
X130439342Y-122884371D01*
X130439342Y-123455800D02*
X130582200Y-123384371D01*
X130867914Y-123384371D01*
X131010771Y-123455800D01*
X131082200Y-123527228D01*
X131153628Y-123670085D01*
X131153628Y-124098657D01*
X131082200Y-124241514D01*
X131010771Y-124312942D01*
X130867914Y-124384371D01*
X130582200Y-124384371D01*
X130439342Y-124312942D01*
D10*
D11*
X90007200Y-119505800D02*
X198007200Y-119505800D01*
D10*
D11*
X91367914Y-121612942D02*
X91582200Y-121684371D01*
X91939342Y-121684371D01*
X92082200Y-121612942D01*
X92153628Y-121541514D01*
X92225057Y-121398657D01*
X92225057Y-121255800D01*
X92153628Y-121112942D01*
X92082200Y-121041514D01*
X91939342Y-120970085D01*
X91653628Y-120898657D01*
X91510771Y-120827228D01*
X91439342Y-120755800D01*
X91367914Y-120612942D01*
X91367914Y-120470085D01*
X91439342Y-120327228D01*
X91510771Y-120255800D01*
X91653628Y-120184371D01*
X92010771Y-120184371D01*
X92225057Y-120255800D01*
X92867914Y-121684371D02*
X92867914Y-120184371D01*
X93510771Y-121684371D02*
X93510771Y-120898657D01*
X93439342Y-120755800D01*
X93296485Y-120684371D01*
X93082200Y-120684371D01*
X92939342Y-120755800D01*
X92867914Y-120827228D01*
X94796485Y-121612942D02*
X94653628Y-121684371D01*
X94367914Y-121684371D01*
X94225057Y-121612942D01*
X94153628Y-121470085D01*
X94153628Y-120898657D01*
X94225057Y-120755800D01*
X94367914Y-120684371D01*
X94653628Y-120684371D01*
X94796485Y-120755800D01*
X94867914Y-120898657D01*
X94867914Y-121041514D01*
X94153628Y-121184371D01*
X96082200Y-121612942D02*
X95939342Y-121684371D01*
X95653628Y-121684371D01*
X95510771Y-121612942D01*
X95439342Y-121470085D01*
X95439342Y-120898657D01*
X95510771Y-120755800D01*
X95653628Y-120684371D01*
X95939342Y-120684371D01*
X96082200Y-120755800D01*
X96153628Y-120898657D01*
X96153628Y-121041514D01*
X95439342Y-121184371D01*
X96582200Y-120684371D02*
X97153628Y-120684371D01*
X96796485Y-120184371D02*
X96796485Y-121470085D01*
X96867914Y-121612942D01*
X97010771Y-121684371D01*
X97153628Y-121684371D01*
X97653628Y-121541514D02*
X97725057Y-121612942D01*
X97653628Y-121684371D01*
X97582200Y-121612942D01*
X97653628Y-121541514D01*
X97653628Y-121684371D01*
X97653628Y-120755800D02*
X97725057Y-120827228D01*
X97653628Y-120898657D01*
X97582200Y-120827228D01*
X97653628Y-120755800D01*
X97653628Y-120898657D01*
D10*
D12*
D10*
D11*
D10*
D11*
D10*
D11*
D10*
D11*
D10*
D11*
X110007200Y-129505800D02*
X110007200Y-132505800D01*
D10*
D11*
X174007200Y-129505800D02*
X174007200Y-136005800D01*
D14*
X96520000Y-62992000D02*
X107188000Y-62992000D01*
X107188000Y-62992000D02*
X107188000Y-73152000D01*
X107188000Y-73152000D02*
X96520000Y-73152000D01*
X96520000Y-73152000D02*
X96520000Y-62992000D01*
D15*
%TO.P,J5,1,pad*%
%TO.N,/POS*%
X105918000Y-66294000D03*
%TD*%
%TO.P,J4,1,pad*%
%TO.N,/Batt-*%
X97790000Y-71882000D03*
%TD*%
%TO.P,J2,1,pad*%
%TO.N,/DC_wall-*%
X97790000Y-66802000D03*
%TD*%
%TO.P,J6,1,pad*%
%TO.N,/NEG*%
X105918000Y-69850000D03*
%TD*%
%TO.P,J1,1,pad*%
%TO.N,/DC_wall+*%
X97790000Y-64262000D03*
%TD*%
%TO.P,J3,1,pad*%
%TO.N,/Batt+*%
X97790000Y-69342000D03*
%TD*%
D16*
%TO.N,/DC_wall+*%
X99568000Y-63754000D03*
D17*
%TO.N,/Batt+*%
X100838000Y-66802000D03*
D18*
X103886000Y-71628000D03*
D19*
%TO.N,/DC_wall-*%
X102362000Y-68326000D03*
D20*
%TO.N,/Batt-*%
X99822000Y-70104000D03*
X98814328Y-65614559D03*
D18*
X103886000Y-64008000D03*
D20*
%TO.N,/POS*%
X104140000Y-66548000D03*
X106426000Y-67818000D03*
D18*
%TO.N,/NEG*%
X103886000Y-69596000D03*
D20*
X104902000Y-68072000D03*
%TD*%
D21*
%TO.N,/DC_wall+*%
X99060000Y-64262000D02*
X99568000Y-63754000D01*
X97790000Y-64262000D02*
X99060000Y-64262000D01*
%TO.N,/DC_wall-*%
X99314000Y-68326000D02*
X97790000Y-66802000D01*
X102362000Y-68326000D02*
X99314000Y-68326000D01*
%TO.N,/Batt-*%
X99822000Y-70104000D02*
X99822000Y-71120000D01*
X99822000Y-71120000D02*
X99060000Y-71882000D01*
X103886000Y-64008000D02*
X100420887Y-64008000D01*
D22*
X98044000Y-71882000D02*
X97790000Y-71882000D01*
D21*
X100420887Y-64008000D02*
X98814328Y-65614559D01*
X99060000Y-71882000D02*
X97790000Y-71882000D01*
%TO.N,/POS*%
X106426000Y-66802000D02*
X105918000Y-66294000D01*
X104140000Y-66548000D02*
X105664000Y-66548000D01*
X105664000Y-66548000D02*
X105918000Y-66294000D01*
X106426000Y-67818000D02*
X106426000Y-66802000D01*
%TO.N,/NEG*%
X104902000Y-68834000D02*
X105918000Y-69850000D01*
D23*
X103886000Y-69596000D02*
X105664000Y-69596000D01*
D21*
X104902000Y-68072000D02*
X104902000Y-68834000D01*
D23*
X105664000Y-69596000D02*
X105918000Y-69850000D01*
%TD*%
%TA.AperFunction,Conductor*%
%TO.N,/Batt+*%
G36*
X106829621Y-63312502D02*
G01*
X106876114Y-63366158D01*
X106887500Y-63418500D01*
X106887500Y-65192500D01*
X106867498Y-65260621D01*
X106813842Y-65307114D01*
X106761500Y-65318500D01*
X104773354Y-65318500D01*
X104769650Y-65318941D01*
X104769647Y-65318941D01*
X104762254Y-65319821D01*
X104747154Y-65321618D01*
X104644847Y-65367061D01*
X104565759Y-65446287D01*
X104520494Y-65548673D01*
X104517500Y-65574354D01*
X104517500Y-65821500D01*
X104497498Y-65889621D01*
X104443842Y-65936114D01*
X104391500Y-65947500D01*
X104100639Y-65947500D01*
X103983238Y-65962956D01*
X103837159Y-66023464D01*
X103711718Y-66119718D01*
X103615464Y-66245159D01*
X103554956Y-66391238D01*
X103534318Y-66548000D01*
X103554956Y-66704762D01*
X103615464Y-66850841D01*
X103711718Y-66976282D01*
X103837159Y-67072536D01*
X103983238Y-67133044D01*
X104100639Y-67148500D01*
X104520292Y-67148500D01*
X104588413Y-67168502D01*
X104609309Y-67185327D01*
X104637051Y-67213021D01*
X104637056Y-67213025D01*
X104645287Y-67221241D01*
X104655926Y-67225944D01*
X104655928Y-67225946D01*
X104734737Y-67260787D01*
X104788953Y-67306625D01*
X104809781Y-67374498D01*
X104790607Y-67442856D01*
X104732008Y-67492436D01*
X104599159Y-67547464D01*
X104592608Y-67552491D01*
X104495760Y-67626805D01*
X104473718Y-67643718D01*
X104468695Y-67650264D01*
X104457100Y-67665375D01*
X104377464Y-67769159D01*
X104316956Y-67915238D01*
X104315878Y-67923426D01*
X104310198Y-67966574D01*
X104301500Y-68032639D01*
X104301500Y-68669500D01*
X104281498Y-68737621D01*
X104227842Y-68784114D01*
X104175500Y-68795500D01*
X103941422Y-68795500D01*
X103926503Y-68794614D01*
X103921169Y-68793978D01*
X103891624Y-68790455D01*
X103845830Y-68795268D01*
X103842945Y-68795500D01*
X103840845Y-68795500D01*
X103837357Y-68795891D01*
X103837344Y-68795892D01*
X103799938Y-68800088D01*
X103799065Y-68800183D01*
X103730357Y-68807405D01*
X103713017Y-68809227D01*
X103710339Y-68810139D01*
X103707528Y-68810454D01*
X103701407Y-68812586D01*
X103701405Y-68812586D01*
X103625793Y-68838917D01*
X103624961Y-68839204D01*
X103549140Y-68865015D01*
X103549139Y-68865016D01*
X103543007Y-68867103D01*
X103540599Y-68868585D01*
X103537927Y-68869515D01*
X103493178Y-68897477D01*
X103464487Y-68915405D01*
X103463741Y-68915867D01*
X103446458Y-68926500D01*
X103390045Y-68961206D01*
X103388024Y-68963185D01*
X103385625Y-68964684D01*
X103381040Y-68969238D01*
X103381039Y-68969238D01*
X103324195Y-69025687D01*
X103323568Y-69026305D01*
X103261732Y-69086859D01*
X103260199Y-69089238D01*
X103258193Y-69091230D01*
X103211610Y-69164633D01*
X103164446Y-69237817D01*
X103163478Y-69240477D01*
X103161963Y-69242864D01*
X103159793Y-69248957D01*
X103159789Y-69248966D01*
X103132917Y-69324433D01*
X103132619Y-69325262D01*
X103103022Y-69406578D01*
X103102667Y-69409386D01*
X103101719Y-69412049D01*
X103100956Y-69418452D01*
X103100955Y-69418454D01*
X103091472Y-69497983D01*
X103091365Y-69498855D01*
X103080514Y-69584753D01*
X103080790Y-69587567D01*
X103080455Y-69590376D01*
X103082014Y-69605204D01*
X103089507Y-69676496D01*
X103089586Y-69677274D01*
X103098039Y-69763486D01*
X103098931Y-69766168D01*
X103099227Y-69768983D01*
X103101309Y-69775098D01*
X103101310Y-69775104D01*
X103127128Y-69850943D01*
X103127409Y-69851777D01*
X103154726Y-69933896D01*
X103156192Y-69936316D01*
X103157103Y-69938993D01*
X103167213Y-69955426D01*
X103202437Y-70012681D01*
X103202896Y-70013433D01*
X103244413Y-70081988D01*
X103244416Y-70081991D01*
X103247759Y-70087512D01*
X103249725Y-70089548D01*
X103251206Y-70091955D01*
X103255720Y-70096565D01*
X103255725Y-70096571D01*
X103311790Y-70153822D01*
X103312349Y-70154396D01*
X103372514Y-70216699D01*
X103374880Y-70218248D01*
X103376859Y-70220268D01*
X103449680Y-70267198D01*
X103450337Y-70267625D01*
X103517392Y-70311505D01*
X103517396Y-70311507D01*
X103522789Y-70315036D01*
X103525439Y-70316022D01*
X103527817Y-70317554D01*
X103609198Y-70347174D01*
X103609875Y-70347423D01*
X103691116Y-70377636D01*
X103693918Y-70378010D01*
X103696578Y-70378978D01*
X103702992Y-70379788D01*
X103702995Y-70379789D01*
X103743520Y-70384908D01*
X103782655Y-70389851D01*
X103783232Y-70389926D01*
X103836387Y-70397019D01*
X103862151Y-70400457D01*
X103862153Y-70400457D01*
X103869130Y-70401388D01*
X103876141Y-70400750D01*
X103876145Y-70400750D01*
X103917139Y-70397019D01*
X103928558Y-70396500D01*
X104391500Y-70396500D01*
X104459621Y-70416502D01*
X104506114Y-70470158D01*
X104517500Y-70522500D01*
X104517500Y-70569646D01*
X104520618Y-70595846D01*
X104524456Y-70604486D01*
X104524456Y-70604487D01*
X104545116Y-70651000D01*
X104566061Y-70698153D01*
X104645287Y-70777241D01*
X104655924Y-70781944D01*
X104655926Y-70781945D01*
X104715462Y-70808265D01*
X104747673Y-70822506D01*
X104773354Y-70825500D01*
X106761500Y-70825500D01*
X106829621Y-70845502D01*
X106876114Y-70899158D01*
X106887500Y-70951500D01*
X106887500Y-72725500D01*
X106867498Y-72793621D01*
X106813842Y-72840114D01*
X106761500Y-72851500D01*
X99281868Y-72851500D01*
X99213747Y-72831498D01*
X99167254Y-72777842D01*
X99157150Y-72707568D01*
X99166628Y-72674553D01*
X99183674Y-72635995D01*
X99183674Y-72635994D01*
X99187506Y-72627327D01*
X99190500Y-72601646D01*
X99190500Y-72562113D01*
X99210502Y-72493992D01*
X99268281Y-72445704D01*
X99362841Y-72406536D01*
X99488282Y-72310282D01*
X99507430Y-72285328D01*
X99518297Y-72272938D01*
X100212938Y-71578297D01*
X100225329Y-71567429D01*
X100243736Y-71553305D01*
X100250282Y-71548282D01*
X100346536Y-71422841D01*
X100407044Y-71276762D01*
X100422500Y-71159361D01*
X100427682Y-71120000D01*
X100423578Y-71088827D01*
X100422500Y-71072381D01*
X100422500Y-70064639D01*
X100407044Y-69947238D01*
X100346536Y-69801159D01*
X100250282Y-69675718D01*
X100124841Y-69579464D01*
X99978762Y-69518956D01*
X99822000Y-69498318D01*
X99665238Y-69518956D01*
X99519159Y-69579464D01*
X99512605Y-69584493D01*
X99505457Y-69588620D01*
X99503674Y-69585532D01*
X99452669Y-69605204D01*
X99415502Y-69602754D01*
X99384453Y-69596000D01*
X98062115Y-69596000D01*
X98046876Y-69600475D01*
X98045671Y-69601865D01*
X98044000Y-69609548D01*
X98044000Y-70506884D01*
X98048475Y-70522123D01*
X98049865Y-70523328D01*
X98057548Y-70524999D01*
X98934669Y-70524999D01*
X98941490Y-70524629D01*
X98992352Y-70519105D01*
X99007603Y-70515479D01*
X99051270Y-70499109D01*
X99122077Y-70493926D01*
X99184446Y-70527846D01*
X99218575Y-70590102D01*
X99221500Y-70617091D01*
X99221500Y-70819075D01*
X99201498Y-70887196D01*
X99184595Y-70908170D01*
X99175986Y-70916779D01*
X99113674Y-70950805D01*
X99042859Y-70945740D01*
X99035943Y-70942924D01*
X98968992Y-70913325D01*
X98968993Y-70913325D01*
X98960327Y-70909494D01*
X98934646Y-70906500D01*
X96946500Y-70906500D01*
X96878379Y-70886498D01*
X96831886Y-70832842D01*
X96820500Y-70780500D01*
X96820500Y-70651000D01*
X96840502Y-70582879D01*
X96894158Y-70536386D01*
X96946500Y-70525000D01*
X97517885Y-70525000D01*
X97533124Y-70520525D01*
X97534329Y-70519135D01*
X97536000Y-70511452D01*
X97536000Y-68177116D01*
X97531525Y-68161877D01*
X97530135Y-68160672D01*
X97522452Y-68159001D01*
X96946500Y-68159001D01*
X96878379Y-68138999D01*
X96831886Y-68085343D01*
X96820500Y-68033001D01*
X96820500Y-67903500D01*
X96840502Y-67835379D01*
X96894158Y-67788886D01*
X96946500Y-67777500D01*
X97864075Y-67777500D01*
X97932196Y-67797502D01*
X97953170Y-67814405D01*
X98094115Y-67955350D01*
X98128141Y-68017662D01*
X98123076Y-68088477D01*
X98080529Y-68145313D01*
X98048889Y-68161152D01*
X98045671Y-68164865D01*
X98044000Y-68172548D01*
X98044000Y-69069885D01*
X98048475Y-69085124D01*
X98049865Y-69086329D01*
X98057548Y-69088000D01*
X99379884Y-69088000D01*
X99395123Y-69083525D01*
X99396328Y-69082135D01*
X99397999Y-69074452D01*
X99397999Y-69052500D01*
X99418001Y-68984379D01*
X99471657Y-68937886D01*
X99523999Y-68926500D01*
X101967847Y-68926500D01*
X102027969Y-68941769D01*
X102095558Y-68978467D01*
X102095560Y-68978468D01*
X102102235Y-68982092D01*
X102109584Y-68984020D01*
X102258883Y-69023188D01*
X102258885Y-69023188D01*
X102266233Y-69025116D01*
X102352609Y-69026473D01*
X102428161Y-69027660D01*
X102428164Y-69027660D01*
X102435760Y-69027779D01*
X102443165Y-69026083D01*
X102443166Y-69026083D01*
X102503586Y-69012245D01*
X102601029Y-68989928D01*
X102752498Y-68913747D01*
X102831713Y-68846090D01*
X102875651Y-68808564D01*
X102875652Y-68808563D01*
X102881423Y-68803634D01*
X102980361Y-68665947D01*
X102983194Y-68658900D01*
X103040766Y-68515687D01*
X103040767Y-68515685D01*
X103043601Y-68508634D01*
X103058475Y-68404122D01*
X103066909Y-68344862D01*
X103066909Y-68344859D01*
X103067490Y-68340778D01*
X103067645Y-68326000D01*
X103047276Y-68157680D01*
X102987345Y-67999077D01*
X102929724Y-67915238D01*
X102895614Y-67865608D01*
X102895613Y-67865607D01*
X102891312Y-67859349D01*
X102885641Y-67854296D01*
X102770392Y-67751612D01*
X102770388Y-67751610D01*
X102764721Y-67746560D01*
X102724946Y-67725500D01*
X102655244Y-67688595D01*
X102614881Y-67667224D01*
X102450441Y-67625919D01*
X102442843Y-67625879D01*
X102442841Y-67625879D01*
X102365668Y-67625475D01*
X102280895Y-67625031D01*
X102273508Y-67626805D01*
X102273504Y-67626805D01*
X102175794Y-67650264D01*
X102116032Y-67664612D01*
X102109288Y-67668093D01*
X102109285Y-67668094D01*
X102025254Y-67711466D01*
X101967464Y-67725500D01*
X99614926Y-67725500D01*
X99546805Y-67705498D01*
X99525831Y-67688595D01*
X99227405Y-67390169D01*
X99193379Y-67327857D01*
X99190500Y-67301074D01*
X99190500Y-66139812D01*
X99210502Y-66071691D01*
X99227405Y-66050717D01*
X100632717Y-64645405D01*
X100695029Y-64611379D01*
X100721812Y-64608500D01*
X103304085Y-64608500D01*
X103373078Y-64629068D01*
X103522789Y-64727036D01*
X103691116Y-64789636D01*
X103698097Y-64790567D01*
X103698099Y-64790568D01*
X103862149Y-64812457D01*
X103862153Y-64812457D01*
X103869130Y-64813388D01*
X103876142Y-64812750D01*
X103876146Y-64812750D01*
X104040960Y-64797751D01*
X104040961Y-64797751D01*
X104047981Y-64797112D01*
X104218782Y-64741615D01*
X104249714Y-64723176D01*
X104366992Y-64653265D01*
X104366994Y-64653264D01*
X104373044Y-64649657D01*
X104503099Y-64525807D01*
X104602483Y-64376222D01*
X104617168Y-64337564D01*
X104663757Y-64214919D01*
X104663758Y-64214914D01*
X104666257Y-64208336D01*
X104691251Y-64030493D01*
X104691565Y-64008000D01*
X104671546Y-63829528D01*
X104612485Y-63659927D01*
X104517316Y-63507625D01*
X104512352Y-63502627D01*
X104507976Y-63497105D01*
X104510427Y-63495163D01*
X104483184Y-63444921D01*
X104488457Y-63374120D01*
X104531171Y-63317410D01*
X104597764Y-63292795D01*
X104606383Y-63292500D01*
X106761500Y-63292500D01*
X106829621Y-63312502D01*
G37*
%TD.AperFunction*%
%TD*%
M02*
